<svg width="100" height="100" viewBox="0 0 100 100" fill="none" xmlns="http://www.w3.org/2000/svg">
<path d="M78.1662 43.6716C82.484 43.6716 86.7048 42.3912 90.2951 39.9923C93.8853 37.5934 96.6837 34.1837 98.3365 30.1943C99.9893 26.2049 100.422 21.815 99.5807 17.5795C98.739 13.3441 96.6606 9.45328 93.6082 6.3991C90.5558 3.34491 86.6664 1.26447 82.4318 0.420798C78.1972 -0.422869 73.8076 0.00812562 69.8179 1.65929C65.8283 3.31046 62.4177 6.10765 60.0174 9.69721C57.6172 13.2868 56.335 17.5075 56.333 21.8258C56.3383 27.6163 58.64 33.1683 62.7331 37.2637C66.8261 41.3592 72.3764 43.6636 78.1662 43.6716ZM78.1662 3.11869C81.8672 3.11902 85.485 4.21701 88.5621 6.2738C91.6391 8.3306 94.0371 11.2538 95.4529 14.6737C96.8687 18.0936 97.2386 21.8566 96.5159 25.4868C95.7932 29.117 94.0103 32.4513 91.3927 35.068C88.7751 37.6848 85.4404 39.4664 81.8103 40.1876C78.1802 40.9088 74.4178 40.5371 70.999 39.1196C67.5801 37.7022 64.6583 35.3025 62.6031 32.2242C60.5479 29.1459 59.4517 25.5272 59.453 21.8258C59.4605 16.8652 61.4347 12.1101 64.9428 8.60321C68.4508 5.09634 73.2062 3.12398 78.1662 3.11869Z" fill="url(#paint0_linear_1010_2684)"/>
<path d="M92.1245 43.0804C91.7099 43.0804 91.3123 43.2451 91.0191 43.5383C90.7259 43.8315 90.5612 44.2292 90.5612 44.6439V83.1815H85.7746C84.6358 81.4826 82.9793 80.1965 81.0512 79.5145V66.8464C81.0515 66.641 81.0112 66.4376 80.9327 66.2478C80.8542 66.058 80.7391 65.8855 80.5938 65.7403C80.4486 65.5951 80.2762 65.4799 80.0864 65.4014C79.8967 65.3229 79.6933 65.2826 79.4879 65.2829H72.6263V48.9477C72.6265 48.7424 72.5863 48.5392 72.5079 48.3495C72.4295 48.1598 72.3145 47.9874 72.1695 47.8422C72.0245 47.697 71.8522 47.5818 71.6626 47.5032C71.4731 47.4246 71.2699 47.3842 71.0646 47.3842H54.2147C54.0095 47.3842 53.8063 47.4246 53.6167 47.5032C53.4271 47.5818 53.2549 47.697 53.1099 47.8422C52.9648 47.9874 52.8498 48.1598 52.7715 48.3495C52.6931 48.5392 52.6528 48.7424 52.6531 48.9477V65.2829H45.7898C45.5845 65.2829 45.3813 65.3233 45.1918 65.4019C45.0022 65.4805 44.8299 65.5957 44.6849 65.7409C44.5399 65.8861 44.4249 66.0585 44.3465 66.2482C44.2681 66.4378 44.2279 66.6411 44.2281 66.8464V83.1815H34.7165V38.9149H56.7164C57.1219 38.9017 57.5065 38.7312 57.7887 38.4396C58.0709 38.148 58.2287 37.7581 58.2287 37.3522C58.2287 36.9464 58.0709 36.5565 57.7887 36.2649C57.5065 35.9732 57.1219 35.8028 56.7164 35.7896H33.1532C32.739 35.7896 32.3418 35.9541 32.0489 36.247C31.756 36.5399 31.5915 36.9372 31.5915 37.3514V46.3291C31.5515 46.3291 31.5165 46.3174 31.4765 46.3174H24.7049C18.1545 46.3249 11.8745 48.9309 7.243 53.5636C2.61146 58.1963 0.00661675 64.4773 0 71.0285V83.0682C0.000883047 83.9272 0.342574 84.7507 0.950045 85.3579C1.55752 85.9651 2.38111 86.3064 3.23998 86.3069H7.61996C7.13642 88.3698 7.36345 90.5355 8.26427 92.4532C9.1651 94.371 10.6869 95.9283 12.5833 96.8731H1.56333C1.14871 96.8731 0.751068 97.0378 0.457887 97.331C0.164707 97.6242 0 98.0219 0 98.4366C0 98.8512 0.164707 99.2489 0.457887 99.5421C0.751068 99.8354 1.14871 100 1.56333 100H92.1245C92.5391 100 92.9368 99.8354 93.23 99.5421C93.5231 99.2489 93.6879 98.8512 93.6879 98.4366C93.6879 98.0219 93.5231 97.6242 93.23 97.331C92.9368 97.0378 92.5391 96.8731 92.1245 96.8731H82.1662C84.0626 95.9283 85.5844 94.371 86.4852 92.4532C87.3861 90.5355 87.6131 88.3698 87.1295 86.3069H92.1295C92.3347 86.3071 92.538 86.2669 92.7277 86.1885C92.9173 86.1101 93.0897 85.9951 93.2349 85.85C93.3801 85.705 93.4952 85.5327 93.5738 85.3431C93.6524 85.1535 93.6928 84.9503 93.6928 84.745V44.6439C93.6928 44.4381 93.6523 44.2344 93.5734 44.0444C93.4945 43.8544 93.3789 43.6818 93.2332 43.5365C93.0875 43.3913 92.9146 43.2762 92.7243 43.1979C92.5341 43.1197 92.3302 43.0797 92.1245 43.0804ZM77.9246 78.9711H77.9079C76.5781 78.9729 75.2636 79.256 74.0509 79.8018C72.8382 80.3476 71.7546 81.1438 70.8713 82.1381H64.2047V68.4032H77.9263L77.9246 78.9711ZM55.778 50.4962H69.4996V64.2194H55.778V50.4962ZM47.3531 68.3982H61.0764V82.1247H47.3531V68.3982ZM3.23998 83.1815C3.22496 83.1818 3.21004 83.179 3.1961 83.1734C3.18216 83.1678 3.16947 83.1595 3.15877 83.1489C3.14806 83.1384 3.13957 83.1258 3.13377 83.1119C3.12797 83.0981 3.12498 83.0832 3.12498 83.0682V71.0285C3.1316 65.3067 5.40737 59.8211 9.453 55.7753C13.4986 51.7295 18.9837 49.4539 24.7049 49.4477H31.4765C31.5067 49.4477 31.5357 49.4596 31.5572 49.4808C31.5788 49.5021 31.5911 49.5309 31.5915 49.5611V83.0648C31.5915 83.0799 31.5885 83.0948 31.5827 83.1086C31.5769 83.1225 31.5684 83.135 31.5577 83.1456C31.547 83.1561 31.5343 83.1645 31.5204 83.1701C31.5064 83.1756 31.4915 83.1784 31.4765 83.1782H24.6965C23.8337 81.8827 22.6644 80.8204 21.2923 80.0857C19.9202 79.3509 18.388 78.9665 16.8316 78.9665C15.2752 78.9665 13.7429 79.3509 12.3709 80.0857C10.9988 80.8204 9.82942 81.8827 8.96662 83.1782L3.23998 83.1815ZM10.4999 88.4304C10.5003 87.5702 10.6773 86.7192 11.0199 85.9302C11.3163 85.6812 11.5075 85.3292 11.5549 84.9451C12.3942 83.6805 13.6603 82.76 15.122 82.3516C16.5836 81.9433 18.1434 82.0743 19.5165 82.7208C20.8896 83.3672 21.9844 84.486 22.601 85.8729C23.2177 87.2597 23.315 88.8221 22.8753 90.2748C22.4356 91.7275 21.4881 92.9736 20.2059 93.7855C18.9237 94.5975 17.3923 94.9212 15.8912 94.6975C14.3902 94.4738 13.0197 93.7176 12.0299 92.567C11.0401 91.4165 10.4971 89.9482 10.4999 88.4304ZM21.0849 96.8731C22.9821 95.9295 24.5047 94.3722 25.4054 92.454C26.3061 90.5359 26.5321 88.3696 26.0465 86.3069H31.4798C31.8199 86.3044 32.1574 86.2482 32.4798 86.1402C32.6913 86.2473 32.9245 86.3043 33.1615 86.3069H68.6963C68.2133 88.3705 68.4413 90.5368 69.3434 92.4547C70.2455 94.3725 71.7687 95.9294 73.6663 96.8731H21.0849ZM77.9179 94.7662C76.6653 94.7662 75.4408 94.3947 74.3993 93.6987C73.3578 93.0027 72.5461 92.0135 72.0667 90.8561C71.5874 89.6987 71.462 88.4251 71.7063 87.1964C71.9507 85.9677 72.5539 84.8391 73.4396 83.9533C74.3253 83.0674 75.4538 82.4642 76.6824 82.2198C77.9109 81.9754 79.1843 82.1008 80.3416 82.5802C81.4988 83.0596 82.488 83.8715 83.1839 84.9131C83.8798 85.9547 84.2512 87.1794 84.2512 88.4321C84.2512 89.2648 84.0871 90.0892 83.7682 90.8584C83.4493 91.6275 82.9819 92.3262 82.3927 92.9145C81.8036 93.5028 81.1042 93.9692 80.3346 94.2869C79.5651 94.6046 78.7405 94.7675 77.9079 94.7662H77.9179Z" fill="url(#paint1_linear_1010_2684)"/>
<path d="M24.201 71.5637C24.4065 71.5639 24.61 71.5235 24.7999 71.4449C24.9897 71.3663 25.1622 71.251 25.3075 71.1056C25.4527 70.9602 25.5678 70.7876 25.6462 70.5976C25.7246 70.4076 25.7647 70.204 25.7643 69.9985V56.3103C25.7643 56.105 25.7239 55.9017 25.6453 55.712C25.5667 55.5223 25.4516 55.3499 25.3064 55.2047C25.1612 55.0595 24.9889 54.9444 24.7992 54.8658C24.6096 54.7872 24.4063 54.7468 24.201 54.7468C20.2969 54.7512 16.5539 56.3041 13.7931 59.0649C11.0324 61.8257 9.47922 65.5689 9.47437 69.4734C9.50543 69.6476 9.50543 69.826 9.47437 70.0002C9.47415 70.2055 9.51443 70.409 9.59292 70.5987C9.67141 70.7885 9.78655 70.961 9.93177 71.1062C10.077 71.2514 10.2494 71.3666 10.4392 71.4451C10.6289 71.5236 10.8323 71.5639 11.0377 71.5637H24.201ZM22.6376 57.9788V68.4383H12.646C12.8845 65.8222 14.0021 63.364 15.8166 61.4646C17.6311 59.5651 20.0354 58.3364 22.6376 57.9788ZM78.164 23.395H89.4273C89.8419 23.395 90.2396 23.2302 90.5328 22.937C90.8259 22.6438 90.9906 22.2461 90.9906 21.8315C90.9906 21.4168 90.8259 21.0191 90.5328 20.7259C90.2396 20.4327 89.8419 20.2679 89.4273 20.2679H79.7274V10.5685C79.7342 10.359 79.6989 10.1503 79.6234 9.95471C79.548 9.75914 79.434 9.58074 79.2882 9.43012C79.1424 9.27949 78.9679 9.15972 78.7749 9.07793C78.5819 8.99613 78.3745 8.95398 78.1649 8.95398C77.9553 8.95398 77.7478 8.99613 77.5548 9.07793C77.3619 9.15972 77.1873 9.27949 77.0415 9.43012C76.8958 9.58074 76.7818 9.75914 76.7063 9.95471C76.6309 10.1503 76.5955 10.359 76.6024 10.5685V21.8265C76.6015 22.0321 76.6412 22.2359 76.7193 22.4262C76.7974 22.6165 76.9123 22.7894 77.0574 22.9352C77.2025 23.0809 77.375 23.1965 77.5649 23.2754C77.7548 23.3543 77.9584 23.395 78.164 23.395Z" fill="url(#paint2_linear_1010_2684)"/>
<defs>
<linearGradient id="paint0_linear_1010_2684" x1="32.1427" y1="25.7935" x2="106.745" y2="26.1902" gradientUnits="userSpaceOnUse">
<stop stop-color="#7240DE"/>
<stop offset="1" stop-color="#A302DE"/>
</linearGradient>
<linearGradient id="paint1_linear_1010_2684" x1="-8.17953" y1="72.7359" x2="104.841" y2="73.8209" gradientUnits="userSpaceOnUse">
<stop stop-color="#7240DE"/>
<stop offset="1" stop-color="#A302DE"/>
</linearGradient>
<linearGradient id="paint2_linear_1010_2684" x1="2.35787" y1="44.9792" x2="100.692" y2="45.8215" gradientUnits="userSpaceOnUse">
<stop stop-color="#7240DE"/>
<stop offset="1" stop-color="#A302DE"/>
</linearGradient>
</defs>
</svg>
