<svg width="77" height="100" viewBox="0 0 77 100" fill="none" xmlns="http://www.w3.org/2000/svg">
<path d="M51.4622 12.4603C40.2916 6.90207 26.8353 9.02727 17.9787 17.7484C7.68536 27.8839 6.65512 44.0453 15.5825 55.341C15.898 55.7403 16.3697 55.9492 16.8466 55.9492C17.1901 55.9492 17.5362 55.8408 17.8284 55.6168C18.526 55.0822 18.6513 54.0922 18.1087 53.4053C10.1709 43.3619 11.0882 28.9908 20.2423 19.9769C28.1188 12.2206 40.0849 10.3304 50.0191 15.2732C50.8077 15.6662 51.7705 15.354 52.1692 14.5773C52.5677 13.8005 52.2515 12.8527 51.4622 12.4603Z" fill="url(#paint0_linear_1010_2690)"/>
<path d="M64.2415 25.0469C63.8428 24.2701 62.8806 23.9584 62.0912 24.3506C61.3024 24.743 60.9856 25.6906 61.3841 26.4678C66.4002 36.2483 64.4795 48.0296 56.6048 55.7835C47.4506 64.7972 32.8562 65.7003 22.6566 57.8845C21.9588 57.3501 20.9536 57.4735 20.4107 58.1603C19.8678 58.8472 19.9934 59.8372 20.691 60.3718C25.9163 64.3761 32.1665 66.3456 38.3969 66.3456C45.8443 66.3456 53.2636 63.531 58.8684 58.012C67.723 49.2932 69.8822 36.0456 64.2415 25.0469Z" fill="url(#paint1_linear_1010_2690)"/>
<path d="M60.1082 19.0446C59.7117 18.6028 59.2952 18.1664 58.8701 17.7481C58.4451 17.3295 58.0022 16.9194 57.5535 16.5289C56.8912 15.9524 55.8796 16.0141 55.2947 16.6662C54.709 17.3182 54.7712 18.3141 55.4335 18.8905C55.8332 19.2381 56.2279 19.6037 56.6068 19.9766C56.9852 20.3496 57.3565 20.7381 57.7098 21.1317C58.026 21.484 58.4667 21.6639 58.9096 21.6639C59.2863 21.6639 59.6643 21.5336 59.9688 21.2688C60.6313 20.6926 60.6936 19.6967 60.1082 19.0446Z" fill="url(#paint2_linear_1010_2690)"/>
<path d="M76.1997 40.7052C77.2668 38.9811 77.2668 36.8397 76.1993 35.1161L74.0938 31.7163C73.8165 31.2682 73.7092 30.7362 73.7921 30.2182L74.4197 26.2919C74.7397 24.2909 73.9048 22.3079 72.2414 21.1163L68.9784 18.7792C68.547 18.47 68.2403 18.019 68.1148 17.5085L67.1645 13.6415C66.6821 11.6772 65.1431 10.162 63.1485 9.68656L59.2211 8.75063C58.7027 8.62699 58.2443 8.32504 57.9307 7.90023L55.5568 4.68636C54.3469 3.04847 52.3329 2.226 50.3013 2.54124L46.3125 3.15921C45.7865 3.24066 45.246 3.13519 44.7914 2.86214L41.3381 0.788307C39.5875 -0.262867 37.4128 -0.262671 35.6621 0.788307L32.2092 2.86155C31.7546 3.1348 31.2145 3.23987 30.6879 3.15862L26.7003 2.54065C24.6688 2.22581 22.6545 3.04788 21.4446 4.68577L19.0711 7.89887C18.7571 8.32367 18.299 8.62563 17.7803 8.74926L13.8531 9.685C11.8587 10.16 10.3195 11.6754 9.83675 13.6395L8.88626 17.5067C8.7607 18.0172 8.45425 18.4686 8.02264 18.7774L4.75879 21.1149C3.09543 22.3061 2.26077 24.2889 2.58031 26.2899L3.20789 30.2178C3.2906 30.736 3.18349 31.268 2.9062 31.7157L0.800318 35.1163C-0.266806 36.8401 -0.266806 38.9815 0.800516 40.7052L2.906 44.1052C3.1833 44.5532 3.2906 45.0853 3.20769 45.6032L2.58011 49.5298C2.26017 51.5306 3.09503 53.5138 4.75839 54.7052L8.02145 57.0423C8.45286 57.3511 8.75951 57.8025 8.88507 58.313L9.83536 62.18C10.3177 64.1443 11.8567 65.6595 13.8514 66.1349L15.4913 66.5257L4.39283 90.9035C4.157 91.4217 4.22225 92.0244 4.56401 92.4818C4.90557 92.9392 5.47027 93.1805 6.04311 93.1129L14.9732 92.0615L20.1176 99.3254C20.4187 99.7502 20.91 99.9998 21.4299 99.9998C21.4797 99.9998 21.5301 99.9975 21.5801 99.993C22.1541 99.9398 22.6549 99.5865 22.8908 99.0687L28.5581 86.6196L34.2255 74.1705L35.6617 75.0328C36.537 75.5584 37.5183 75.8211 38.4997 75.8211C39.4812 75.8211 40.4624 75.5582 41.3377 75.0328L42.8257 74.1394L54.1747 99.0687C54.4106 99.5869 54.9112 99.9398 55.4854 99.993C55.5356 99.9977 55.5858 100 55.6356 100C56.1555 100 56.647 99.7504 56.9479 99.3256L62.0923 92.0617L71.0224 93.1131C71.5948 93.1801 72.1599 92.9394 72.5015 92.482C72.843 92.0246 72.9087 91.4219 72.6727 90.9037L61.5684 66.5124L63.1467 66.1365C65.1411 65.6615 66.6803 64.146 67.1631 62.182L68.1136 58.3148C68.2391 57.8042 68.5458 57.3529 68.9772 57.0441L72.241 54.7066C73.9044 53.5154 74.7391 51.5325 74.4195 49.5316L73.7919 45.6036C73.7092 45.0855 73.8163 44.5534 74.0936 44.1058L76.1997 40.7052ZM21.1262 95.2398L17.0494 89.4832C16.7114 89.0059 16.1334 88.7504 15.5467 88.8199L8.46972 89.6531L18.5814 67.4415C18.7663 67.5753 18.9321 67.7357 19.0688 67.921L21.4426 71.1349C21.6681 71.4402 21.9216 71.7169 22.1979 71.9634L16.8756 83.6543C16.5142 84.4486 16.8748 85.3808 17.6813 85.7369C17.8939 85.8308 18.1163 85.8752 18.3349 85.8752C18.9462 85.8752 19.5301 85.5283 19.7961 84.9435L25.0996 73.2943C25.6214 73.3648 26.1588 73.3636 26.6981 73.28L30.6869 72.6621C30.9257 72.6251 31.1671 72.6285 31.4022 72.6668L21.1262 95.2398ZM68.5962 89.6527L61.519 88.8199C60.9317 88.7506 60.3543 89.0059 60.0163 89.4832L55.9394 95.2398L45.6592 72.658C45.8748 72.6291 46.0947 72.6291 46.3123 72.6627L50.2998 73.2806C50.8609 73.3675 51.42 73.3648 51.9617 73.2853L57.2692 84.9439C57.5356 85.5289 58.1191 85.8756 58.7304 85.8756C58.9492 85.8756 59.1716 85.8312 59.384 85.7373C60.1905 85.3814 60.5513 84.4488 60.1897 83.6547L54.8471 71.9193C55.1048 71.6837 55.343 71.423 55.5554 71.1355L57.9289 67.9224C58.0784 67.7199 58.2617 67.5462 58.4676 67.4058L68.5962 89.6527ZM73.4666 39.0642L71.3608 42.4647C70.6893 43.5495 70.4295 44.8382 70.63 46.0933L71.2576 50.021C71.3895 50.847 71.0448 51.6655 70.3583 52.1573L67.0943 54.495C66.0495 55.2435 65.3065 56.3366 65.0026 57.5732L64.0522 61.4404C63.8528 62.2511 63.2177 62.8767 62.3941 63.073L58.4668 64.0087C57.2109 64.3079 56.1005 65.0396 55.3404 66.0685L52.967 69.2816C52.4675 69.958 51.6364 70.297 50.7972 70.1669L46.8096 69.549C45.5348 69.3515 44.2259 69.607 43.1241 70.2685L39.6714 72.3418C38.9488 72.7754 38.0507 72.7754 37.3285 72.3418L33.875 70.2683C33.0161 69.7525 32.0315 69.4837 31.0352 69.4837C30.7536 69.4837 30.4705 69.5052 30.1898 69.5488L26.2008 70.1667C25.3618 70.2968 24.5307 69.9572 24.0313 69.2812L21.6572 66.0673C20.8971 65.0386 19.787 64.307 18.5312 64.0078L14.6039 63.0718C13.7805 62.8755 13.1452 62.2501 12.9459 61.4392L11.9956 57.5722C11.6917 56.3355 10.9489 55.2419 9.90379 54.4935L6.64093 52.1562C5.95424 51.6644 5.60971 50.8456 5.74181 50.0196L6.36939 46.0931C6.56992 44.8378 6.31048 43.5491 5.63867 42.4642L3.53318 39.064C3.09265 38.3524 3.09265 37.4683 3.53318 36.7569L5.63907 33.3563C6.31068 32.2716 6.57032 30.9829 6.36979 29.7278L5.74221 25.8001C5.61031 24.9741 5.95504 24.1555 6.64153 23.6637L9.90558 21.326C10.9503 20.5776 11.6933 19.4844 11.9972 18.2479L12.9477 14.3807C13.147 13.57 13.7821 12.9444 14.6057 12.7481L18.533 11.8124C19.789 11.5131 20.8993 10.7815 21.6592 9.75258L24.0327 6.53949C24.5321 5.86332 25.3632 5.52367 26.2024 5.65394L30.19 6.27191C31.465 6.46976 32.7739 6.2139 33.8756 5.55238L37.3283 3.47913C38.0508 3.04554 38.949 3.04554 39.6712 3.47913L43.1246 5.55257C44.2263 6.21429 45.5354 6.46996 46.8098 6.2723L50.7988 5.65433C51.6374 5.52484 52.4689 5.8639 52.9684 6.53988L55.3424 9.75375C56.1025 10.7825 57.2127 11.5141 58.4684 11.8133L62.3957 12.7493C63.2191 12.9456 63.8544 13.5709 64.0537 14.3819L65.004 18.2489C65.3079 19.4856 66.0507 20.5792 67.0958 21.3276L70.3589 23.6647C71.0456 24.1565 71.3901 24.9753 71.258 25.8012L70.6304 29.7278C70.4299 30.9831 70.6893 32.2718 71.3612 33.3567L73.4666 36.7569C73.9074 37.4685 73.9074 38.3526 73.4666 39.0642Z" fill="url(#paint3_linear_1010_2690)"/>
<path d="M57.2261 33.0074C56.8735 31.9383 55.9501 31.1918 54.8164 31.0593L45.1863 29.9349L41.1245 21.264C40.6462 20.2433 39.64 19.6091 38.4983 19.6091C37.3568 19.6091 36.3504 20.2433 35.8721 21.264L31.8103 29.9351L22.1802 31.0595C21.0465 31.192 20.1229 31.9384 19.7705 33.0076C19.4178 34.0761 19.7193 35.2146 20.5571 35.9777L27.6769 42.4611L25.787 51.8272C25.5647 52.9299 26.0003 54.0252 26.924 54.6858C27.4335 55.0502 28.0248 55.2348 28.6199 55.2348C29.1037 55.2348 29.5896 55.1129 30.0361 54.8668L38.4981 50.2029L46.9601 54.8668C47.9564 55.416 49.1487 55.3467 50.0724 54.686C50.9962 54.0252 51.4317 52.9297 51.2092 51.8272L49.3193 42.4613L56.4391 35.9779C57.2773 35.2148 57.5788 34.0765 57.2261 33.0074ZM46.4886 40.7463C46.08 41.1183 45.8972 41.6728 46.0055 42.2103L47.9394 51.7945L39.2798 47.0217C39.037 46.8879 38.7677 46.8209 38.4981 46.8209C38.2285 46.8209 37.9594 46.8877 37.7164 47.0217L29.0568 51.7945L30.9908 42.2103C31.0994 41.6726 30.9164 41.1183 30.5076 40.7463L23.2218 34.1115L33.077 32.9609C33.6296 32.8965 34.1086 32.5537 34.3419 32.0562L38.4983 23.183L42.6547 32.0562C42.888 32.5537 43.3668 32.8965 43.9196 32.9609L53.7744 34.1115L46.4886 40.7463Z" fill="url(#paint4_linear_1010_2690)"/>
<defs>
<linearGradient id="paint0_linear_1010_2690" x1="-3.41365" y1="28.3748" x2="58.943" y2="28.1007" gradientUnits="userSpaceOnUse">
<stop offset="0.197917" stop-color="#5664DE"/>
<stop offset="0.661458" stop-color="#7240DE"/>
</linearGradient>
<linearGradient id="paint1_linear_1010_2690" x1="5.79864" y1="41.3734" x2="74.6431" y2="41.0045" gradientUnits="userSpaceOnUse">
<stop offset="0.197917" stop-color="#5664DE"/>
<stop offset="0.661458" stop-color="#7240DE"/>
</linearGradient>
<linearGradient id="paint2_linear_1010_2690" x1="43.7795" y1="19.1742" x2="68.1526" y2="19.1239" gradientUnits="userSpaceOnUse">
<stop stop-color="#5664DE"/>
<stop offset="0.552083" stop-color="#7240DE"/>
</linearGradient>
<linearGradient id="paint3_linear_1010_2690" x1="-3.74802" y1="40.3742" x2="82.3706" y2="39.9617" gradientUnits="userSpaceOnUse">
<stop stop-color="#5664DE"/>
<stop offset="0.515625" stop-color="#7240DE"/>
</linearGradient>
<linearGradient id="paint4_linear_1010_2690" x1="-10.6534" y1="37.5742" x2="82.3705" y2="37.352" gradientUnits="userSpaceOnUse">
<stop stop-color="#5664DE"/>
<stop offset="0.666667" stop-color="#7240DE"/>
</linearGradient>
</defs>
</svg>
