<svg width="100" height="100" viewBox="0 0 100 100" fill="none" xmlns="http://www.w3.org/2000/svg">
<path d="M12.5003 82.1326H7.14303C5.24858 82.1326 3.43172 81.3795 2.09215 80.039C0.752567 78.6985 0 76.8804 0 74.9847V60.689C0 58.7933 0.752567 56.9752 2.09215 55.6347C3.43172 54.2942 5.24858 53.5411 7.14303 53.5411H12.5003C12.9739 53.5411 13.4281 53.7294 13.763 54.0645C14.0979 54.3996 14.2861 54.8542 14.2861 55.3281V80.3456C14.2861 80.8195 14.0979 81.2741 13.763 81.6092C13.4281 81.9443 12.9739 82.1326 12.5003 82.1326ZM7.14303 57.1151C6.19581 57.1151 5.28738 57.4916 4.61759 58.1618C3.9478 58.8321 3.57152 59.7411 3.57152 60.689V74.9847C3.57152 75.9326 3.9478 76.8416 4.61759 77.5119C5.28738 78.1821 6.19581 78.5586 7.14303 78.5586H10.7145V57.1151H7.14303Z" fill="#3094DE"/>
<path d="M17.852 87.4913C15.9576 87.4913 14.1407 86.7383 12.8011 85.3978C11.4616 84.0573 10.709 82.2392 10.709 80.3435V55.326C10.709 53.4302 11.4616 51.6121 12.8011 50.2717C14.1407 48.9312 15.9576 48.1781 17.852 48.1781C19.7465 48.1781 21.5633 48.9312 22.9029 50.2717C24.2425 51.6121 24.995 53.4302 24.995 55.326V80.3435C24.995 82.2392 24.2425 84.0573 22.9029 85.3978C21.5633 86.7383 19.7465 87.4913 17.852 87.4913ZM17.852 51.752C16.9048 51.752 15.9964 52.1286 15.3266 52.7988C14.6568 53.4691 14.2805 54.3781 14.2805 55.326V80.3435C14.2805 81.2913 14.6568 82.2004 15.3266 82.8706C15.9964 83.5409 16.9048 83.9174 17.852 83.9174C18.7992 83.9174 19.7077 83.5409 20.3775 82.8706C21.0472 82.2004 21.4235 81.2913 21.4235 80.3435V55.326C21.4235 54.3781 21.0472 53.4691 20.3775 52.7988C19.7077 52.1286 18.7992 51.752 17.852 51.752ZM92.8538 82.1304H87.4965C87.0229 82.1304 86.5687 81.9422 86.2338 81.6071C85.8989 81.2719 85.7108 80.8174 85.7108 80.3435V55.326C85.7108 54.852 85.8989 54.3975 86.2338 54.0624C86.5687 53.7273 87.0229 53.539 87.4965 53.539H92.8538C94.7483 53.539 96.5651 54.2921 97.9047 55.6326C99.2443 56.973 99.9968 58.7911 99.9968 60.6869V74.9826C99.9968 76.8783 99.2443 78.6964 97.9047 80.0369C96.5651 81.3774 94.7483 82.1304 92.8538 82.1304ZM89.2823 78.5565H92.8538C93.801 78.5565 94.7095 78.18 95.3792 77.5097C96.049 76.8395 96.4253 75.9304 96.4253 74.9826V60.6869C96.4253 59.739 96.049 58.8299 95.3792 58.1597C94.7095 57.4895 93.801 57.1129 92.8538 57.1129H89.2823V78.5565Z" fill="url(#paint0_linear_1010_2705)"/>
<path d="M82.1435 87.4913C80.249 87.4913 78.4322 86.7383 77.0926 85.3978C75.753 84.0573 75.0004 82.2392 75.0004 80.3435V55.326C75.0004 53.4302 75.753 51.6121 77.0926 50.2717C78.4322 48.9312 80.249 48.1781 82.1435 48.1781C84.0379 48.1781 85.8548 48.9312 87.1944 50.2717C88.5339 51.6121 89.2865 53.4302 89.2865 55.326V80.3435C89.2865 82.2392 88.5339 84.0573 87.1944 85.3978C85.8548 86.7383 84.0379 87.4913 82.1435 87.4913ZM82.1435 51.752C81.1962 51.752 80.2878 52.1286 79.618 52.7988C78.9482 53.469 78.5719 54.3781 78.5719 55.326V80.3435C78.5719 81.2913 78.9482 82.2004 79.618 82.8706C80.2878 83.5409 81.1962 83.9174 82.1435 83.9174C83.0907 83.9174 83.9991 83.5409 84.6689 82.8706C85.3387 82.2004 85.715 81.2913 85.715 80.3435V55.326C85.715 54.3781 85.3387 53.469 84.6689 52.7988C83.9991 52.1286 83.0907 51.752 82.1435 51.752ZM53.5713 100H46.4283C45.0075 100 43.6448 99.4353 42.6402 98.4299C41.6355 97.4245 41.071 96.061 41.071 94.6392C41.071 93.2174 41.6355 91.8538 42.6402 90.8485C43.6448 89.8431 45.0075 89.2783 46.4283 89.2783H53.5713C54.9922 89.2783 56.3548 89.8431 57.3595 90.8485C58.3642 91.8538 58.9286 93.2174 58.9286 94.6392C58.9286 96.061 58.3642 97.4245 57.3595 98.4299C56.3548 99.4353 54.9922 100 53.5713 100ZM46.4283 92.8522C45.9547 92.8522 45.5005 93.0405 45.1656 93.3756C44.8307 93.7107 44.6426 94.1653 44.6426 94.6392C44.6426 95.1131 44.8307 95.5676 45.1656 95.9028C45.5005 96.2379 45.9547 96.4262 46.4283 96.4262H53.5713C54.045 96.4262 54.4992 96.2379 54.8341 95.9028C55.169 95.5676 55.3571 95.1131 55.3571 94.6392C55.3571 94.1653 55.169 93.7107 54.8341 93.3756C54.4992 93.0405 54.045 92.8522 53.5713 92.8522H46.4283Z" fill="url(#paint1_linear_1010_2705)"/>
<path d="M82.1437 96.426H57.1431C56.6695 96.426 56.2152 96.2378 55.8803 95.9026C55.5454 95.5675 55.3573 95.113 55.3573 94.6391C55.3573 94.1651 55.5454 93.7106 55.8803 93.3755C56.2152 93.0404 56.6695 92.8521 57.1431 92.8521H82.1437C84.5117 92.8521 86.7828 91.9108 88.4573 90.2351C90.1318 88.5595 91.0725 86.2869 91.0725 83.9173V80.3433C91.0725 79.8694 91.2606 79.4149 91.5955 79.0798C91.9304 78.7446 92.3846 78.5564 92.8582 78.5564C93.3318 78.5564 93.7861 78.7446 94.1209 79.0798C94.4558 79.4149 94.644 79.8694 94.644 80.3433V83.9173C94.644 87.2348 93.327 90.4165 90.9827 92.7623C88.6385 95.1082 85.459 96.426 82.1437 96.426ZM91.0725 57.1128C90.5989 57.1128 90.1446 56.9245 89.8097 56.5894C89.4748 56.2543 89.2867 55.7998 89.2867 55.3258V42.8171C89.2887 41.1019 89.1754 39.3885 88.9474 37.6885C88.9169 37.4538 88.9329 37.2154 88.9945 36.987C89.0561 36.7585 89.162 36.5444 89.3063 36.3569C89.4506 36.1694 89.6303 36.0121 89.8353 35.8941C90.0403 35.7761 90.2665 35.6997 90.501 35.6692C90.7355 35.6387 90.9737 35.6547 91.2021 35.7163C91.4304 35.778 91.6444 35.884 91.8317 36.0283C92.0191 36.1727 92.1763 36.3526 92.2942 36.5577C92.4121 36.7628 92.4884 36.9892 92.5189 37.2239C92.7563 39.0786 92.8696 40.9472 92.8582 42.8171V55.3258C92.8582 55.7998 92.6701 56.2543 92.3352 56.5894C92.0003 56.9245 91.5461 57.1128 91.0725 57.1128ZM8.9276 57.1128C8.45399 57.1128 7.99978 56.9245 7.66488 56.5894C7.32999 56.2543 7.14185 55.7998 7.14185 55.3258V42.8171C7.14227 40.9464 7.26755 39.0778 7.51685 37.2239C7.54734 36.9892 7.62372 36.7628 7.74163 36.5577C7.85953 36.3526 8.01667 36.1727 8.20405 36.0283C8.39143 35.884 8.60539 35.778 8.83371 35.7163C9.06204 35.6547 9.30025 35.6387 9.53476 35.6692C9.76927 35.6997 9.99548 35.7761 10.2005 35.8941C10.4055 36.0121 10.5852 36.1694 10.7295 36.3569C10.8738 36.5444 10.9797 36.7585 11.0413 36.987C11.1029 37.2154 11.1189 37.4538 11.0884 37.6885C10.8485 39.3876 10.7232 41.1011 10.7134 42.8171V55.3258C10.7134 55.7998 10.5252 56.2543 10.1903 56.5894C9.85543 56.9245 9.40122 57.1128 8.9276 57.1128Z" fill="url(#paint2_linear_1010_2705)"/>
<path d="M90.7151 39.2454C87.9535 39.206 85.2625 38.3664 82.9679 36.8282C80.6733 35.29 78.8734 33.1193 77.7862 30.5786C75.3993 25.1597 71.4817 20.557 66.5152 17.3367C61.5486 14.1164 55.7498 12.419 49.8319 12.4532C43.914 12.4873 38.1351 14.2517 33.206 17.5291C28.277 20.8065 24.4127 25.4541 22.0884 30.9003C21.0857 33.3448 19.3858 35.4397 17.2009 36.9238C15.0161 38.4078 12.4429 39.2153 9.80243 39.2454H9.28456C9.02917 39.2476 8.77629 39.1949 8.54298 39.091C8.30967 38.987 8.10136 38.8342 7.9321 38.6428C7.76284 38.4514 7.63658 38.2259 7.56183 37.9815C7.48709 37.7371 7.46559 37.4796 7.49881 37.2262C8.86984 26.9233 13.9333 17.4692 21.7475 10.6219C29.5618 3.77459 39.5952 0 49.982 0C60.3688 0 70.4021 3.77459 78.2164 10.6219C86.0307 17.4692 91.0941 26.9233 92.4652 37.2262C92.4984 37.4796 92.4769 37.7371 92.4021 37.9815C92.3274 38.2259 92.2011 38.4514 92.0319 38.6428C91.8626 38.8342 91.6543 38.987 91.421 39.091C91.1877 39.1949 90.9348 39.2476 90.6794 39.2454H90.7151ZM49.9998 3.50612C40.8439 3.50543 31.9753 6.70484 24.9261 12.5516C17.8769 18.3984 13.0898 26.5254 11.3918 35.5285C13.0321 35.2193 14.5692 34.5048 15.8634 33.45C17.1577 32.3952 18.168 31.0335 18.8027 29.4886C20.9766 24.3784 24.3701 19.8798 28.6857 16.3874C33.0013 12.895 38.1072 10.5152 43.5557 9.45691C49.0042 8.39857 54.629 8.69392 59.9369 10.3171C65.2448 11.9402 70.0738 14.8416 74.0004 18.7668C76.9973 21.7397 79.419 25.2414 81.1435 29.0955C81.8168 30.6649 82.8498 32.0537 84.159 33.1496C85.4681 34.2454 87.0167 35.0175 88.6794 35.4034C87.1845 27.6741 83.4161 20.5679 77.8577 14.9963C74.2084 11.3272 69.8658 8.42169 65.083 6.44899C60.3002 4.47629 55.1729 3.4759 49.9998 3.50612Z" fill="url(#paint3_linear_1010_2705)"/>
<path d="M46.4262 49.9645H37.4975C37.0238 49.9645 36.5696 49.7762 36.2347 49.4411C35.8998 49.106 35.7117 48.6514 35.7117 48.1775V46.3905C35.7103 46.1554 35.7554 45.9222 35.8443 45.7045C35.9331 45.4868 36.0641 45.2888 36.2296 45.1218L44.0512 37.2949C44.3295 37.015 44.5189 36.659 44.5955 36.2717C44.6721 35.8844 44.6325 35.4831 44.4817 35.1182C44.3309 34.7534 44.0756 34.4413 43.748 34.2213C43.4203 34.0013 43.035 33.8832 42.6404 33.8818H41.2833C40.7528 33.8818 40.2441 34.0927 39.869 34.468C39.4939 34.8433 39.2832 35.3524 39.2832 35.8832V37.4557C39.2832 37.9297 39.0951 38.3842 38.7602 38.7193C38.4253 39.0544 37.9711 39.2427 37.4975 39.2427C37.0238 39.2427 36.5696 39.0544 36.2347 38.7193C35.8998 38.3842 35.7117 37.9297 35.7117 37.4557V35.8832C35.7117 35.151 35.8558 34.426 36.1358 33.7496C36.4158 33.0732 36.8262 32.4586 37.3436 31.9408C37.8609 31.4231 38.4751 31.0124 39.1511 30.7323C39.8271 30.4521 40.5516 30.3079 41.2833 30.3079H42.6404C44.1181 30.3079 45.5353 30.8953 46.5801 31.9408C47.625 32.9864 48.212 34.4045 48.212 35.8832C48.2168 36.6165 48.0755 37.3433 47.7965 38.0214C47.5175 38.6994 47.1063 39.3151 46.587 39.8324L40.0154 46.3905H46.4262C46.8999 46.3905 47.3541 46.5788 47.689 46.9139C48.0239 47.2491 48.212 47.7036 48.212 48.1775C48.212 48.6514 48.0239 49.106 47.689 49.4411C47.3541 49.7762 46.8999 49.9645 46.4262 49.9645ZM62.4981 42.8166H58.9265C57.0321 42.8166 55.2152 42.0635 53.8757 40.7231C52.5361 39.3826 51.7835 37.5645 51.7835 35.6688V32.0948C51.7835 31.6209 51.9717 31.1664 52.3066 30.8312C52.6414 30.4961 53.0957 30.3079 53.5693 30.3079C54.0429 30.3079 54.4971 30.4961 54.832 30.8312C55.1669 31.1664 55.355 31.6209 55.355 32.0948V35.6688C55.355 36.6166 55.7313 37.5257 56.4011 38.1959C57.0709 38.8661 57.9793 39.2427 58.9265 39.2427H60.7123V32.0948C60.7123 31.6209 60.9004 31.1664 61.2353 30.8312C61.5702 30.4961 62.0245 30.3079 62.4981 30.3079C62.9717 30.3079 63.4259 30.4961 63.7608 30.8312C64.0957 31.1664 64.2838 31.6209 64.2838 32.0948V41.0297C64.2838 41.5036 64.0957 41.9581 63.7608 42.2932C63.4259 42.6284 62.9717 42.8166 62.4981 42.8166Z" fill="url(#paint4_linear_1010_2705)"/>
<path d="M62.4974 49.965C62.0238 49.965 61.5696 49.7767 61.2347 49.4416C60.8998 49.1064 60.7117 48.6519 60.7117 48.178V41.0301C60.7117 40.5562 60.8998 40.1017 61.2347 39.7666C61.5696 39.4314 62.0238 39.2432 62.4974 39.2432C62.971 39.2432 63.4253 39.4314 63.7602 39.7666C64.095 40.1017 64.2832 40.5562 64.2832 41.0301V48.178C64.2832 48.6519 64.095 49.1064 63.7602 49.4416C63.4253 49.7767 62.971 49.965 62.4974 49.965Z" fill="#5566DE"/>
<path d="M50.0056 64.261C45.4142 64.261 40.9258 62.8986 37.1082 60.346C33.2905 57.7934 30.315 54.1652 28.5579 49.9204C26.8008 45.6756 26.3411 41.0047 27.2368 36.4984C28.1326 31.9921 30.3436 27.8529 33.5903 24.604C36.8369 21.3552 40.9734 19.1427 45.4766 18.2463C49.9799 17.3499 54.6476 17.81 58.8896 19.5683C63.1315 21.3265 66.7572 24.304 69.3081 28.1243C71.859 31.9445 73.2205 36.4359 73.2205 41.0305C73.2205 41.5044 73.0324 41.9589 72.6975 42.2941C72.3626 42.6292 71.9083 42.8174 71.4347 42.8174C70.9611 42.8174 70.5069 42.6292 70.172 42.2941C69.8371 41.9589 69.649 41.5044 69.649 41.0305C69.649 37.1428 68.4969 33.3424 66.3385 30.1099C64.18 26.8773 61.1122 24.3579 57.5228 22.8701C53.9335 21.3824 49.9838 20.9931 46.1734 21.7516C42.363 22.51 38.8629 24.3821 36.1157 27.1312C33.3685 29.8802 31.4977 33.3827 30.7397 37.1957C29.9818 41.0087 30.3708 44.961 31.8576 48.5527C33.3443 52.1445 35.8621 55.2145 39.0924 57.3744C42.3227 59.5342 46.1206 60.6871 50.0056 60.6871C50.4792 60.6871 50.9335 60.8754 51.2684 61.2105C51.6033 61.5456 51.7914 62.0001 51.7914 62.4741C51.7914 62.948 51.6033 63.4025 51.2684 63.7376C50.9335 64.0728 50.4792 64.261 50.0056 64.261Z" fill="url(#paint5_linear_1010_2705)"/>
<path d="M48.218 69.6252C47.983 69.6265 47.75 69.5815 47.5324 69.4925C47.3148 69.4036 47.117 69.2726 46.9501 69.107C46.7827 68.9408 46.6499 68.7432 46.5592 68.5254C46.4686 68.3077 46.4219 68.0741 46.4219 67.8382C46.4219 67.6023 46.4686 67.3688 46.5592 67.151C46.6499 66.9332 46.7827 66.7356 46.9501 66.5695L51.0573 62.4773L46.9501 58.3852C46.6138 58.0487 46.4249 57.5923 46.4249 57.1164C46.4249 56.6406 46.6138 56.1842 46.9501 55.8477C47.2864 55.5112 47.7424 55.3221 48.218 55.3221C48.6935 55.3221 49.1496 55.5112 49.4859 55.8477L54.8431 61.2086C55.0105 61.3747 55.1434 61.5723 55.234 61.7901C55.3247 62.0079 55.3714 62.2414 55.3714 62.4773C55.3714 62.7132 55.3247 62.9468 55.234 63.1645C55.1434 63.3823 55.0105 63.5799 54.8431 63.7461L49.4859 69.107C49.319 69.2726 49.1211 69.4036 48.9036 69.4925C48.686 69.5815 48.453 69.6265 48.218 69.6252Z" fill="url(#paint6_linear_1010_2705)"/>
<defs>
<linearGradient id="paint0_linear_1010_2705" x1="12.1727" y1="68.8008" x2="98.1672" y2="68.8008" gradientUnits="userSpaceOnUse">
<stop stop-color="#3094DE"/>
<stop offset="1" stop-color="#5664DE"/>
</linearGradient>
<linearGradient id="paint1_linear_1010_2705" x1="41.8615" y1="75.3626" x2="70.0001" y2="75.5557" gradientUnits="userSpaceOnUse">
<stop stop-color="#3094DE"/>
<stop offset="1" stop-color="#5664DE"/>
</linearGradient>
<linearGradient id="paint2_linear_1010_2705" x1="8.57631" y1="67.5336" x2="92.8509" y2="67.5336" gradientUnits="userSpaceOnUse">
<stop stop-color="#3094DE"/>
<stop offset="1" stop-color="#5664DE"/>
</linearGradient>
<linearGradient id="paint3_linear_1010_2705" x1="8.87703" y1="20.5872" x2="90.7386" y2="20.5872" gradientUnits="userSpaceOnUse">
<stop stop-color="#3094DE"/>
<stop offset="1" stop-color="#5664DE"/>
</linearGradient>
<linearGradient id="paint4_linear_1010_2705" x1="36.1801" y1="40.6192" x2="63.6983" y2="40.6192" gradientUnits="userSpaceOnUse">
<stop stop-color="#3094DE"/>
<stop offset="1" stop-color="#5664DE"/>
</linearGradient>
<linearGradient id="paint5_linear_1010_2705" x1="27.5519" y1="42.1723" x2="72.2691" y2="42.1723" gradientUnits="userSpaceOnUse">
<stop stop-color="#3094DE"/>
<stop offset="1" stop-color="#5664DE"/>
</linearGradient>
<linearGradient id="paint6_linear_1010_2705" x1="46.5686" y1="62.8252" x2="55.188" y2="62.8252" gradientUnits="userSpaceOnUse">
<stop stop-color="#3094DE"/>
<stop offset="1" stop-color="#5664DE"/>
</linearGradient>
</defs>
</svg>
