<svg width="105" height="100" viewBox="0 0 105 100" fill="none" xmlns="http://www.w3.org/2000/svg">
<path d="M52.1498 100C48.4921 100 44.8363 99.3013 41.4508 97.9058L25.2623 91.2362C19.4056 88.8219 13.2132 87.2928 6.85723 86.6906L1.54102 86.1868C0.66575 86.1042 0 85.4064 0 84.5732V68.7688C0 68.4181 0.120423 68.0766 0.342666 67.7964C0.740158 67.2926 10.2682 55.4957 24.8227 58.5651C33.0085 60.289 39.5994 63.5152 43.6869 65.9184C46.6544 67.6628 50.133 68.5842 53.7466 68.5842H69.9351C72.7254 68.5842 75.1779 69.9834 76.5495 72.0822L90.4921 56.8587C93.1953 53.4377 97.6176 51.3425 102.248 51.3425H103.289C103.868 51.3425 104.406 51.619 104.722 52.0774C105.038 52.5358 105.088 53.1157 104.856 53.6167L92.2456 80.7773C89.4886 86.7175 83.8748 91.2047 77.23 92.7793L75.0115 93.3045L62.1057 98.1971C58.9297 99.4006 55.5392 100 52.1498 100ZM3.42274 83.1053L7.19794 83.4635C13.9073 84.0991 20.4444 85.7145 26.6281 88.2624L42.8156 94.9319C48.5077 97.2776 55.0722 97.3694 60.8359 95.1843L73.8474 90.2518C73.9198 90.2249 73.9933 90.2026 74.0686 90.185L76.3997 89.632C82.0263 88.2986 86.7796 84.4999 89.1126 79.4709L100.614 54.6977C97.6695 55.1087 94.9595 56.6128 93.1541 58.8935L77.7087 75.764C77.7107 75.8271 77.7117 75.8893 77.7117 75.9533C77.7117 80.0164 74.2233 83.3224 69.9361 83.3224H47.3495C44.4134 83.3224 41.5115 83.7687 38.7261 84.6484L38.0976 83.1359L37.5659 81.5948L37.6531 81.5678C40.7792 80.5806 44.0443 80.0786 47.3495 80.0786H69.9361C72.3357 80.0786 74.2899 78.2275 74.2899 75.9524C74.2899 73.6773 72.3367 71.8262 69.9361 71.8262H53.7476C49.4956 71.8262 45.3934 70.7359 41.8845 68.6733C38.0232 66.4028 31.7984 63.3566 24.0825 61.73C13.0605 59.4131 5.12922 67.4299 3.42372 69.3423V83.1053H3.42274Z" fill="url(#paint0_linear_1010_2698)"/>
<path d="M68.8863 43.6837C66.2392 43.6837 63.2711 42.8771 60.0036 41.2648C59.6077 41.0685 59.3024 40.7284 59.1527 40.3173C59.0198 39.949 55.9443 31.2191 60.8318 24.7634C64.3839 20.0705 71.0627 17.9568 80.6939 18.4864C81.5724 18.534 82.2725 19.2289 82.3159 20.0977C82.3503 20.7721 83.0604 36.6915 74.8344 41.9917C73.0855 43.12 71.0982 43.6837 68.8863 43.6837ZM62.1986 38.5389C66.7198 40.6312 70.334 40.8363 72.9535 39.1482C77.8311 36.0044 78.8859 26.672 78.9115 21.8149C71.365 21.6331 66.2274 23.3115 63.5892 26.7954C60.4497 30.9441 61.6698 36.6506 62.1986 38.5389Z" fill="url(#paint1_linear_1010_2698)"/>
<path d="M36.7827 25.8547C33.7308 25.8547 30.2102 25.2094 27.1377 22.9888C21.9262 19.2201 19.5312 12.0452 20.0177 1.66423C20.0591 0.796397 20.7563 0.0986328 21.6357 0.0471265C22.3802 0.00533833 40.002 -0.922747 45.9314 7.86053C48.6927 11.949 48.4662 17.3037 45.2607 23.7789C45.0657 24.1725 44.725 24.4767 44.3084 24.6273C44.077 24.7118 40.8459 25.8547 36.7827 25.8547ZM43.7146 23.0335H43.7313H43.7146ZM23.4054 3.3892C23.2567 11.7041 25.1937 17.3717 29.1713 20.2483C33.9337 23.6914 40.4362 22.2279 42.4807 21.6399C44.8195 16.6312 45.0175 12.6322 43.0676 9.74392C39.4436 4.3756 28.8158 3.32604 23.4054 3.3892Z" fill="url(#paint2_linear_1010_2698)"/>
<path d="M50.7864 70.4215C50.7322 70.4215 50.6781 70.4186 50.6229 70.4137C49.7061 70.3282 49.0197 69.5459 49.066 68.6372C49.1674 66.6392 49.3407 64.7441 49.5761 62.9482C50.292 50.9288 49.9227 22.9385 31.9897 15.1951C31.1192 14.819 30.7213 13.818 31.1025 12.9579C31.4826 12.0998 32.4999 11.7082 33.3694 12.0833C43.9372 16.646 50.5855 28.0056 52.5915 44.9336C52.7717 46.4507 52.9066 47.9463 53.0071 49.403C57.7301 37.6256 64.9555 33.4643 65.3859 33.2262C66.2131 32.7645 67.2629 33.058 67.7297 33.8734C68.1935 34.6897 67.902 35.7228 67.0778 36.1834C66.8956 36.2884 55.8157 42.8501 53.0347 63.0853C52.8229 66.5469 52.5177 68.7539 52.4891 68.956C52.3699 69.8034 51.6363 70.4215 50.7864 70.4215Z" fill="url(#paint3_linear_1010_2698)"/>
<defs>
<linearGradient id="paint0_linear_1010_2698" x1="-14.875" y1="78.4768" x2="120.308" y2="79.3661" gradientUnits="userSpaceOnUse">
<stop offset="0.240637" stop-color="#00D1DE"/>
<stop offset="0.906886" stop-color="#3094DE"/>
</linearGradient>
<linearGradient id="paint1_linear_1010_2698" x1="41.1256" y1="30.9949" x2="87.0631" y2="30.9685" gradientUnits="userSpaceOnUse">
<stop stop-color="#00D1DE"/>
<stop offset="1" stop-color="#3094DE"/>
</linearGradient>
<linearGradient id="paint2_linear_1010_2698" x1="18.8119" y1="13.3013" x2="79.1869" y2="13.3117" gradientUnits="userSpaceOnUse">
<stop stop-color="#00D1DE"/>
<stop offset="1" stop-color="#3094DE"/>
</linearGradient>
<linearGradient id="paint3_linear_1010_2698" x1="24.062" y1="45.1499" x2="96.246" y2="44.0402" gradientUnits="userSpaceOnUse">
<stop stop-color="#00D1DE"/>
<stop offset="1" stop-color="#3094DE"/>
</linearGradient>
</defs>
</svg>
