<svg width="50" height="50" viewBox="0 0 50 50" fill="none" xmlns="http://www.w3.org/2000/svg">
<path fill-rule="evenodd" clip-rule="evenodd" d="M0 2.5C0 3.875 1.12458 5 2.49907 5H4.99814L13.9948 23.975L10.6211 30.075C8.79673 33.425 11.1958 37.5 14.9944 37.5H42.4842C43.8587 37.5 44.9833 36.375 44.9833 35C44.9833 33.625 43.8587 32.5 42.4842 32.5H14.9944L17.7434 27.5H36.3615C38.2358 27.5 39.8852 26.475 40.7349 24.925L49.6815 8.7C50.6062 7.05 49.4067 5 47.5074 5H10.5211L8.84671 1.425C8.44686 0.55 7.5472 0 6.59755 0H2.49907C1.12458 0 0 1.125 0 2.5ZM14.9984 40C12.2487 40 10.0239 42.25 10.0239 45C10.0239 47.75 12.2487 50 14.9984 50C17.7481 50 19.9978 47.75 19.9978 45C19.9978 42.25 17.7481 40 14.9984 40ZM35.0122 45C35.0122 42.25 37.237 40 39.9867 40C42.7364 40 44.9861 42.25 44.9861 45C44.9861 47.75 42.7364 50 39.9867 50C37.237 50 35.0122 47.75 35.0122 45Z" fill="#0D0F2E"/>
</svg>
