<svg width="1440" height="252" viewBox="0 0 1440 252" fill="none" xmlns="http://www.w3.org/2000/svg">
<path d="M244 98C241.984 111.392 224.5 146 225.5 167C226.5 188 237.5 202 252 202C266.5 202 282 185 278.5 165C275 145 255.5 110.5 273 88C290.5 65.5 307.5 68.5 323 77C338.5 85.5 352.5 80 359 67C365.5 54 376.5 54.5 390 62C403.5 69.5 413.5 56 426 45C438.5 34 455.68 45 453 69.5C450.32 94 475 106.5 484 69.5C493 32.5 476 14.5 520.5 16C547.126 20.5738 551.5 39.5 545.5 57.5C539.5 75.5 530.5 92 530.5 105.5C530.5 119 535.5 136 549 136C562.5 136 574.5 115.5 574.5 104C574.5 92.5 563.5 61 564 50C564.5 39 564.5 30 574.5 30C584.5 30 593.193 44.5414 607.5 70C615.065 85.9612 633.5 97 644 104C654.5 111 657 121.5 657.5 135C658 148.5 645 182 644 205C643 228 658 247 670.5 245C683 243 695.5 223.5 693.5 204C691.5 184.5 685 171.5 681 135C676.545 100.586 679 83.5 712.5 74C746 64.5 776 79 774.5 104C773 129 779 136 792.5 136C806 136 812 125.5 812 104C812 82.5 812 52 848.5 54C869.131 57.0221 880 70 886.5 88C893 106 899.5 114 910 114C920.5 114 937 96 941.5 73C946 50 951 17.5 972 22.5C993 27.5 1015 59.5 1017.5 83.5C1020 107.5 1015.5 124.5 1008 164C1000.5 203.5 1013 226 1032 223.5C1051 221 1059.96 204.5 1057.5 185.5C1055.04 166.5 1053 153.5 1044.5 112.5C1036 71.5 1039.5 50.5 1062.5 62C1085.5 73.5 1094.5 121 1114.5 103.5C1134.5 86 1120 48.5 1141 43C1162 37.5 1168 98.5 1196 98.5C1224 98.5 1207.5 11.5 1240.5 14C1273.5 16.5 1284 52 1284 80C1284 108 1286.5 117.5 1278 139C1269.5 160.5 1273.5 186.987 1289 185C1304.5 183.013 1307.98 163 1304.5 139C1301.02 115 1300.5 103 1302.5 81.5C1304.5 60 1319.5 36.5 1343.5 39C1367.5 41.5 1383 59 1385.5 90.5C1388 122 1383.12 150.298 1377 180.5C1369.24 226.586 1380.5 251.5 1399.5 251.5C1418.5 251.5 1430.5 232 1425 202.5C1419.5 173 1410.51 127.877 1409 99.5C1407 70.063 1420.5 55.5 1425 51C1429.5 46.5 1440 41.5 1440 41.5V0H0V41.5C10 37 14 36.5 22.5 38C39.5 44.5 39.6 62.5 40.5 71.5C41.4 80.5 32.5 97.5 33.5 112.5C34.5 127.5 38.5 141.5 47 140.5C55.5 139.5 58 131.5 58 122.5C58 113.5 54.3036 101.213 56 85.5C59.5946 66.9049 68.5 57.5 81.5 57.5C94.5 57.5 107.5 72 109.5 85.5C111.5 99 113 107.5 103 126.5C93 145.5 95.5 161.5 109.5 163C123.5 164.5 127.954 136.5 125.5 126.5C123.046 116.5 121.5 104.5 123.5 90C125.5 75.5 140.5 58 150 59.5C159.5 61 175 64.5 183.5 52.5C192 40.5 205.5 38.125 213 40C220.5 41.875 251 51.5 244 98Z" fill="white"/>
</svg>
