<svg width="1440" height="252" viewBox="0 0 1440 252" fill="none" xmlns="http://www.w3.org/2000/svg">
<path d="M1196 98.1948C1198.02 111.613 1215.5 146.29 1214.5 167.332C1213.5 188.374 1202.5 202.402 1188 202.402C1173.5 202.402 1158 185.368 1161.5 165.328C1165 145.288 1184.5 110.72 1167 88.1749C1149.5 65.6302 1132.5 68.6362 1117 77.1531C1101.5 85.67 1087.5 80.159 1081 67.1332C1074.5 54.1074 1063.5 54.6083 1050 62.1233C1036.5 69.6382 1026.5 56.1113 1014 45.0895C1001.5 34.0676 984.32 45.0895 987 69.6382C989.68 94.1869 965 106.712 956 69.6382C947 32.5646 964 14.5288 919.5 16.0318C892.874 20.6147 888.5 39.5785 894.5 57.6143C900.5 75.6501 909.5 92.1829 909.5 105.71C909.5 119.237 904.5 136.27 891 136.27C877.5 136.27 865.5 115.73 865.5 104.207C865.5 92.6839 876.5 61.1213 876 50.0994C875.5 39.0775 875.5 30.0596 865.5 30.0596C855.5 30.0596 846.807 44.63 832.5 70.1392C824.935 86.1321 806.5 97.1928 796 104.207C785.5 111.221 783 121.742 782.5 135.268C782 148.795 795 182.362 796 205.408C797 228.453 782 247.491 769.5 245.487C757 243.483 744.5 223.944 746.5 204.406C748.5 184.867 755 171.841 759 135.268C763.455 100.786 761 83.666 727.5 74.1471C694 64.6282 664 79.1571 665.5 104.207C667 129.256 661 136.27 647.5 136.27C634 136.27 628 125.75 628 104.207C628 82.664 628 52.1034 591.5 54.1074C570.869 57.1355 560 70.1392 553.5 88.1749C547 106.211 540.5 114.227 530 114.227C519.5 114.227 503 96.1909 498.5 73.1451C494 50.0994 489 17.5348 468 22.5447C447 27.5547 425 59.6183 422.5 83.666C420 107.714 424.5 124.748 432 164.326C439.5 203.905 427 226.449 408 223.944C389 221.439 380.036 204.907 382.5 185.869C384.964 166.831 387 153.805 395.5 112.724C404 71.6421 400.5 50.6004 377.5 62.1233C354.5 73.6461 345.5 121.241 325.5 103.706C305.5 86.171 320 48.5964 299 43.0855C278 37.5746 272 98.6958 244 98.6958C216 98.6958 232.5 11.5229 199.5 14.0278C166.5 16.5328 156 52.1034 156 80.159C156 108.215 153.5 117.734 162 139.276C170.5 160.819 166.5 187.359 151 185.368C135.5 183.377 132.016 163.324 135.5 139.276C138.984 115.229 139.5 103.205 137.5 81.662C135.5 60.1193 120.5 36.5726 96.5 39.0775C72.5 41.5825 57 59.1173 54.5 90.6799C52 122.243 56.8844 150.597 63 180.859C70.7576 227.037 59.5 252 40.5 252C21.5 252 9.5 232.461 15 202.903C20.5 173.344 29.4891 128.132 31 99.6978C32.9972 70.2022 19.5 55.6103 15 51.1014C10.5 46.5924 0 41.5825 0 41.5825V0H1440V41.5825C1430 37.0736 1426 36.5726 1417.5 38.0755C1400.5 44.5885 1400.4 62.6243 1399.5 71.6421C1398.6 80.66 1407.5 97.6938 1406.5 112.724C1405.5 127.753 1401.5 141.781 1393 140.779C1384.5 139.777 1382 131.761 1382 122.744C1382 113.726 1385.7 101.414 1384 85.67C1380.41 67.0379 1371.5 57.6143 1358.5 57.6143C1345.5 57.6143 1332.5 72.1431 1330.5 85.67C1328.5 99.1968 1327 107.714 1337 126.751C1347 145.789 1344.5 161.821 1330.5 163.324C1316.5 164.827 1312.05 136.771 1314.5 126.751C1316.95 116.732 1318.5 104.708 1316.5 90.1789C1314.5 75.6501 1299.5 58.1153 1290 59.6183C1280.5 61.1213 1265 64.6282 1256.5 52.6044C1248 40.5805 1234.5 38.2008 1227 40.0795C1219.5 41.9582 1189 51.6024 1196 98.1948Z" fill="url(#paint0_linear_988_3792)"/>
<defs>
<linearGradient id="paint0_linear_988_3792" x1="1440" y1="123.709" x2="-4.19577e-05" y2="123.709" gradientUnits="userSpaceOnUse">
<stop stop-color="#CC00DE"/>
<stop offset="1" stop-color="#00D1DE"/>
</linearGradient>
</defs>
</svg>
