<svg width="8" height="10" viewBox="0 0 8 10" fill="none" xmlns="http://www.w3.org/2000/svg">
<path d="M4 10C4.08202 9.99953 4.16148 9.97184 4.22545 9.92143C4.36364 9.8 8 6.92143 8 3.92857C8 2.88665 7.57857 1.8874 6.82843 1.15065C6.07828 0.413902 5.06087 0 4 0C2.93913 0 1.92172 0.413902 1.17157 1.15065C0.421427 1.8874 0 2.88665 0 3.92857C0 6.92143 3.63636 9.8 3.77455 9.92143C3.83852 9.97184 3.91798 9.99953 4 10ZM0.727273 3.92857C0.727273 3.07609 1.07208 2.25852 1.68583 1.65573C2.29959 1.05293 3.13202 0.714286 4 0.714286C4.86798 0.714286 5.70041 1.05293 6.31417 1.65573C6.92792 2.25852 7.27273 3.07609 7.27273 3.92857C7.27273 6.17857 4.77455 8.50357 4 9.175C3.22545 8.50357 0.727273 6.17857 0.727273 3.92857Z" fill="#00DEB6"/>
<path d="M5.81825 3.92829C5.81825 3.57511 5.71161 3.22986 5.51183 2.9362C5.31205 2.64254 5.02808 2.41366 4.69586 2.27851C4.36363 2.14335 3.99805 2.10799 3.64536 2.17689C3.29267 2.24579 2.9687 2.41587 2.71442 2.6656C2.46014 2.91534 2.28698 3.23352 2.21682 3.57992C2.14667 3.92631 2.18267 4.28536 2.32029 4.61166C2.4579 4.93795 2.69094 5.21684 2.98994 5.41306C3.28894 5.60928 3.64046 5.71401 4.00007 5.71401C4.48228 5.71401 4.94474 5.52587 5.28572 5.19098C5.62669 4.8561 5.81825 4.40189 5.81825 3.92829ZM2.90916 3.92829C2.90916 3.71638 2.97314 3.50923 3.09301 3.33304C3.21288 3.15684 3.38326 3.01952 3.58259 2.93842C3.78193 2.85733 4.00128 2.83611 4.21289 2.87745C4.42451 2.91879 4.61889 3.02084 4.77146 3.17068C4.92402 3.32052 5.02792 3.51143 5.07001 3.71927C5.11211 3.9271 5.0905 4.14253 5.00794 4.33831C4.92537 4.53409 4.78554 4.70142 4.60614 4.81915C4.42674 4.93688 4.21583 4.99972 4.00007 4.99972C3.71074 4.99972 3.43326 4.88684 3.22868 4.68591C3.02409 4.48498 2.90916 4.21245 2.90916 3.92829Z" fill="#00DEB6"/>
</svg>
