<svg width="130" height="105" viewBox="0 0 130 105" fill="none" xmlns="http://www.w3.org/2000/svg">
<path d="M52.5 105C75.9721 105 95 85.9721 95 62.5C95 39.0279 75.9721 20 52.5 20C29.0279 20 10 39.0279 10 62.5C10 85.9721 29.0279 105 52.5 105Z" fill="url(#paint0_linear_1003_2668)"/>
<path d="M35.5434 0C31.4317 0 28.0867 3.20678 28.0867 7.14843C28.0867 10.2548 30.1649 12.9033 33.0578 13.887V42.7715C33.0578 50.1951 26.758 56.2343 19.0145 56.2343C11.2708 56.2343 4.9711 50.1951 4.9711 42.7715H13.6705L0 29.666V42.7715C0 52.8226 8.52991 61 19.0145 61C29.499 61 38.0289 52.8226 38.0289 42.7715V13.887C40.9218 12.9033 43 10.2548 43 7.14843C43 3.20678 39.6549 0 35.5434 0ZM35.5434 9.53125C34.1728 9.53125 33.0578 8.46232 33.0578 7.14843C33.0578 5.83455 34.1728 4.76563 35.5434 4.76563C36.9139 4.76563 38.0289 5.83455 38.0289 7.14843C38.0289 8.46232 36.9139 9.53125 35.5434 9.53125Z" fill="#0D0F2E"/>
<path fill-rule="evenodd" clip-rule="evenodd" d="M56.3836 41.8441C55.7259 43.0591 55.3969 44.4544 55.3969 46.0299C55.3969 47.6056 55.7259 49.0198 56.3836 50.2727C57.0607 51.5066 57.97 52.4748 59.1113 53.1771C60.2527 53.8605 61.5103 54.2022 62.8837 54.2022C64.1219 54.2022 65.2246 53.9554 66.1918 53.4618C67.1591 52.9684 67.9233 52.3513 68.4843 51.611V53.9459H71.8214V38.2563H68.4843V40.5343C67.9233 39.813 67.1688 39.215 66.2208 38.7403C65.2922 38.2469 64.1992 38 62.9417 38C61.5488 38 60.272 38.3417 59.1113 39.0251C57.97 39.6896 57.0607 40.6292 56.3836 41.8441ZM67.7878 43.2678C68.2521 44.0651 68.4843 45.0048 68.4843 46.0869C68.4843 47.1689 68.2521 48.1181 67.7878 48.9343C67.343 49.7316 66.7529 50.3391 66.0177 50.7567C65.2826 51.1745 64.4894 51.3832 63.6382 51.3832C62.8064 51.3832 62.0131 51.1745 61.2587 50.7567C60.5236 50.3202 59.9238 49.6938 59.4595 48.8774C59.0147 48.0612 58.7921 47.1119 58.7921 46.0299C58.7921 44.9479 59.0147 44.0177 59.4595 43.2394C59.9238 42.4421 60.5236 41.8441 61.2587 41.4455C61.9938 41.0279 62.7871 40.819 63.6382 40.819C64.4894 40.819 65.2826 41.0279 66.0177 41.4455C66.7529 41.8632 67.343 42.4706 67.7878 43.2678ZM76.0504 41.8441C75.3927 43.0591 75.0637 44.4544 75.0637 46.0299C75.0637 47.6056 75.3927 49.0198 76.0504 50.2727C76.7275 51.5066 77.6271 52.4748 78.7491 53.1771C79.8905 53.8605 81.1479 54.2022 82.5215 54.2022C83.779 54.2022 84.901 53.9554 85.8876 53.4618C86.8743 52.9684 87.6287 52.3704 88.1511 51.6679V61.4063H91.4882V38.2563H88.1511V40.5343C87.6287 39.8319 86.884 39.234 85.9166 38.7403C84.9688 38.2469 83.8756 38 82.6376 38C81.2254 38 79.9388 38.3417 78.7781 39.0251C77.6367 39.6896 76.7275 40.6292 76.0504 41.8441ZM87.4546 43.2678C87.9189 44.0651 88.1511 45.0048 88.1511 46.0869C88.1511 47.1689 87.9189 48.1181 87.4546 48.9343C87.0096 49.7316 86.4197 50.3391 85.6845 50.7567C84.9493 51.1745 84.1562 51.3832 83.305 51.3832C82.4732 51.3832 81.68 51.1745 80.9255 50.7567C80.1903 50.3202 79.5906 49.6938 79.1263 48.8774C78.6813 48.0612 78.4589 47.1119 78.4589 46.0299C78.4589 44.9479 78.6813 44.0177 79.1263 43.2394C79.5906 42.4421 80.1903 41.8441 80.9255 41.4455C81.6607 41.0279 82.4537 40.819 83.305 40.819C84.1562 40.819 84.9493 41.0279 85.6845 41.4455C86.4197 41.8632 87.0096 42.4706 87.4546 43.2678ZM110.313 53.9459V38.2563H107.005V46.9981C107.005 48.4029 106.638 49.4849 105.903 50.2442C105.187 50.9845 104.21 51.3547 102.972 51.3547C101.734 51.3547 100.757 50.9845 100.041 50.2442C99.3252 49.4849 98.9673 48.4029 98.9673 46.9981V38.2563H95.6882V47.4821C95.6882 48.9059 95.9686 50.1209 96.5297 51.1269C97.1101 52.1331 97.8936 52.8923 98.8802 53.4049C99.8861 53.9174 101.018 54.1737 102.275 54.1737C103.223 54.1737 104.113 53.9935 104.945 53.6327C105.796 53.2531 106.483 52.7406 107.005 52.095V53.9459H110.313ZM114.562 41.8441C113.904 43.0591 113.576 44.4544 113.576 46.0299C113.576 47.6056 113.904 49.0198 114.562 50.2727C115.239 51.5066 116.148 52.4748 117.29 53.1771C118.431 53.8605 119.689 54.2022 121.062 54.2022C122.3 54.2022 123.403 53.9554 124.37 53.4618C125.338 52.9684 126.102 52.3513 126.663 51.611V53.9459H130V38.2563H126.663V40.5343C126.102 39.813 125.347 39.215 124.399 38.7403C123.471 38.2469 122.378 38 121.12 38C119.727 38 118.451 38.3417 117.29 39.0251C116.148 39.6896 115.239 40.6292 114.562 41.8441ZM125.966 43.2678C126.431 44.0651 126.663 45.0048 126.663 46.0869C126.663 47.1689 126.431 48.1181 125.966 48.9343C125.521 49.7316 124.931 50.3391 124.196 50.7567C123.461 51.1745 122.668 51.3832 121.817 51.3832C120.985 51.3832 120.192 51.1745 119.437 50.7567C118.702 50.3202 118.102 49.6938 117.638 48.8774C117.193 48.0612 116.971 47.1119 116.971 46.0299C116.971 44.9479 117.193 44.0177 117.638 43.2394C118.102 42.4421 118.702 41.8441 119.437 41.4455C120.172 41.0279 120.966 40.819 121.817 40.819C122.668 40.819 123.461 41.0279 124.196 41.4455C124.931 41.8632 125.521 42.4706 125.966 43.2678ZM33.2791 89.1409C34.285 89.5775 35.4167 89.7957 36.6742 89.7957C37.9123 89.7957 38.986 89.5965 39.8953 89.1978C40.8239 88.7991 41.5396 88.2487 42.0427 87.5462C42.5455 86.8439 42.7971 86.0466 42.7971 85.1543C42.7777 84.1483 42.4972 83.3415 41.9556 82.734C41.4138 82.1266 40.7658 81.671 40.0114 81.3672C39.2762 81.0446 38.3283 80.7313 37.1676 80.4275C36.297 80.1808 35.6392 79.9814 35.1943 79.8295C34.7493 79.6587 34.3721 79.4309 34.0626 79.1463C33.753 78.8614 33.5983 78.5103 33.5983 78.0926C33.5983 77.5611 33.8304 77.134 34.2947 76.8112C34.759 76.4886 35.4264 76.3271 36.297 76.3271C37.1869 76.3271 37.893 76.536 38.4153 76.9536C38.9377 77.3713 39.2279 77.9313 39.2859 78.6336H42.594C42.5165 77.077 41.9169 75.8526 40.7949 74.9603C39.6922 74.0491 38.2315 73.5935 36.4131 73.5935C35.1943 73.5935 34.1109 73.793 33.163 74.1915C32.2344 74.5902 31.5185 75.1407 31.0156 75.8431C30.5126 76.5265 30.2612 77.2859 30.2612 78.121C30.2612 79.1463 30.5319 79.9721 31.0737 80.5984C31.6346 81.2248 32.2925 81.6899 33.0469 81.9936C33.8014 82.2975 34.7783 82.6107 35.9778 82.9334C37.2159 83.275 38.1154 83.5882 38.6765 83.8731C39.2569 84.1579 39.5471 84.5944 39.5471 85.1828C39.5471 85.7334 39.2859 86.189 38.7636 86.5497C38.2605 86.8913 37.5448 87.0621 36.6162 87.0621C35.7262 87.0621 34.9815 86.8439 34.3818 86.4072C33.8014 85.9516 33.4822 85.3917 33.4242 84.7272H30C30.0386 85.6764 30.3482 86.5402 30.9286 87.3184C31.509 88.0778 32.2925 88.6854 33.2791 89.1409ZM57.8919 74.3624C56.9439 73.8498 55.8606 73.5935 54.6419 73.5935C53.6165 73.5935 52.6686 73.7739 51.7981 74.1346C50.9468 74.4953 50.2407 75.0079 49.6797 75.6722V68.4682H46.3716V89.5395H49.6797V80.7692C49.6797 79.3645 50.0375 78.2919 50.7534 77.5516C51.4884 76.7923 52.4751 76.4126 53.7131 76.4126C54.9514 76.4126 55.9283 76.7923 56.6441 77.5516C57.3599 78.2919 57.7178 79.3645 57.7178 80.7692V89.5395H60.9969V80.2851C60.9969 78.8614 60.7163 77.6465 60.1554 76.6405C59.6136 75.6343 58.8591 74.8749 57.8919 74.3624ZM68.0603 88.7991C69.2791 89.4636 70.6429 89.7957 72.1519 89.7957C73.6803 89.7957 75.0732 89.4636 76.3305 88.7991C77.6074 88.1157 78.6134 87.1571 79.3485 85.9231C80.0837 84.6893 80.4512 83.275 80.4512 81.6804C80.4512 80.086 80.0934 78.6716 79.3775 77.4376C78.6617 76.2038 77.6848 75.2546 76.4466 74.5902C75.2086 73.9258 73.8254 73.5935 72.297 73.5935C70.7687 73.5935 69.3856 73.9258 68.1473 74.5902C66.9093 75.2546 65.9324 76.2038 65.2165 77.4376C64.5007 78.6716 64.1428 80.086 64.1428 81.6804C64.1428 83.2941 64.491 84.7178 65.1875 85.9516C65.8839 87.1666 66.8415 88.1157 68.0603 88.7991ZM74.5314 86.3787C73.7964 86.7775 73.0032 86.9769 72.1519 86.9769C70.817 86.9769 69.7048 86.5213 68.8148 85.6101C67.9442 84.6798 67.5089 83.37 67.5089 81.6804C67.5089 80.5414 67.7218 79.5828 68.1473 78.8044C68.573 78.0071 69.1437 77.4092 69.8594 77.0105C70.5946 76.6119 71.3878 76.4126 72.2389 76.4126C73.0902 76.4126 73.8834 76.6119 74.6185 77.0105C75.3536 77.4092 75.9437 78.0071 76.3886 78.8044C76.8336 79.5828 77.056 80.5414 77.056 81.6804C77.056 82.8195 76.8239 83.7875 76.3596 84.585C75.8953 85.3823 75.2859 85.9801 74.5314 86.3787ZM89.322 74.3339C88.3548 74.8275 87.5906 75.435 87.0295 76.1563V73.8498H83.7214V97H87.0295V87.2616C87.6293 87.9829 88.4031 88.5904 89.351 89.0839C90.299 89.5585 91.3823 89.7957 92.601 89.7957C93.9939 89.7957 95.2612 89.454 96.4025 88.7706C97.5632 88.0683 98.4725 87.1002 99.1302 85.8662C99.788 84.6134 100.117 83.1991 100.117 81.6234C100.117 80.0479 99.788 78.6527 99.1302 77.4376C98.4725 76.2228 97.5632 75.2831 96.4025 74.6186C95.2612 73.9352 93.9939 73.5935 92.601 73.5935C91.3823 73.5935 90.2893 73.8404 89.322 74.3339ZM96.0542 78.8329C96.5185 79.6113 96.7507 80.5414 96.7507 81.6234C96.7507 82.7055 96.5185 83.6547 96.0542 84.4709C95.6094 85.2873 95.0096 85.9137 94.2551 86.3503C93.5201 86.768 92.7268 86.9769 91.8756 86.9769C91.0438 86.9769 90.2505 86.768 89.4961 86.3503C88.761 85.9327 88.1612 85.3253 87.6969 84.5279C87.2521 83.7117 87.0295 82.7624 87.0295 81.6804C87.0295 80.5984 87.2521 79.6587 87.6969 78.8614C88.1612 78.0641 88.761 77.4567 89.4961 77.039C90.2505 76.6214 91.0438 76.4126 91.8756 76.4126C92.7268 76.4126 93.5201 76.6214 94.2551 77.039C95.0096 77.4377 95.6094 78.0356 96.0542 78.8329Z" fill="#0D0F2E"/>
<defs>
<linearGradient id="paint0_linear_1003_2668" x1="10" y1="20" x2="95" y2="105" gradientUnits="userSpaceOnUse">
<stop offset="0.253627" stop-color="#00DEB6"/>
<stop offset="0.637038" stop-color="#00D1DE"/>
</linearGradient>
</defs>
</svg>
