<svg width="22" height="26" viewBox="0 0 22 26" fill="none" xmlns="http://www.w3.org/2000/svg">
<path d="M11.0002 25.9999C10.8686 26.0007 10.7381 25.9755 10.6163 25.9257C10.4944 25.8759 10.3836 25.8026 10.2902 25.7099L1.29019 16.7099C1.10188 16.5216 0.996094 16.2662 0.996094 15.9999C0.996094 15.7336 1.10188 15.4782 1.29019 15.2899C1.47849 15.1016 1.73388 14.9958 2.00019 14.9958C2.26649 14.9958 2.52188 15.1016 2.71019 15.2899L11.0002 23.5899L19.2902 15.2899C19.3834 15.1967 19.4941 15.1227 19.6159 15.0723C19.7378 15.0218 19.8683 14.9958 20.0002 14.9958C20.132 14.9958 20.2626 15.0218 20.3844 15.0723C20.5063 15.1227 20.6169 15.1967 20.7102 15.2899C20.8034 15.3832 20.8774 15.4939 20.9278 15.6157C20.9783 15.7375 21.0043 15.8681 21.0043 15.9999C21.0043 16.1318 20.9783 16.2624 20.9278 16.3842C20.8774 16.506 20.8034 16.6167 20.7102 16.7099L11.7102 25.7099C11.6167 25.8026 11.5059 25.8759 11.3841 25.9257C11.2623 25.9755 11.1318 26.0007 11.0002 25.9999Z" fill="#00DEB6"/>
<path d="M11 26C10.7348 26 10.4804 25.8946 10.2929 25.7071C10.1054 25.5196 10 25.2652 10 25V1C10 0.734784 10.1054 0.48043 10.2929 0.292893C10.4804 0.105357 10.7348 0 11 0C11.2652 0 11.5196 0.105357 11.7071 0.292893C11.8946 0.48043 12 0.734784 12 1V25C12 25.2652 11.8946 25.5196 11.7071 25.7071C11.5196 25.8946 11.2652 26 11 26Z" fill="#00DEB6"/>
</svg>
