<svg width="40" height="32" viewBox="0 0 40 32" fill="none" xmlns="http://www.w3.org/2000/svg">
<path d="M21.6667 20.8444C21.6667 11.7049 28.1533 2.144 38.3333 0L39.9733 3.77956C36.2817 5.264 33.035 10.432 32.6733 13.9947C36.825 14.6916 40 18.5227 40 23.1484C40 28.8053 35.6933 32 31.335 32C26.31 32 21.6667 27.9022 21.6667 20.8444ZM0 20.8444C0 11.7049 6.48667 2.144 16.6667 0L18.3067 3.77956C14.615 5.264 11.3683 10.432 11.0067 13.9947C15.1583 14.6916 18.3333 18.5227 18.3333 23.1484C18.3333 28.8053 14.0267 32 9.66833 32C4.64333 32 0 27.9022 0 20.8444Z" fill="#00DEB6" fill-opacity="0.6"/>
</svg>
