<svg width="35" height="35" viewBox="0 0 35 35" fill="none" xmlns="http://www.w3.org/2000/svg">
<path fill-rule="evenodd" clip-rule="evenodd" d="M24.0421 22.5712H25.6639L34.3687 31.3119C35.2104 32.1531 35.2104 33.5278 34.3687 34.3691C33.527 35.2103 32.1514 35.2103 31.3097 34.3691L22.5844 25.6489V24.028L22.0301 23.4534C19.1559 25.9156 15.2346 27.1877 11.067 26.4901C5.35964 25.5258 0.801959 20.7656 0.103935 15.0205C-0.963631 6.34137 6.34509 -0.963066 15.0293 0.103874C20.7778 0.801489 25.5407 5.3565 26.5057 11.0605C27.2037 15.2257 25.9308 19.1446 23.4672 22.0172L24.0421 22.5712ZM4.10742 13.3379C4.10742 18.4469 8.23399 22.5711 13.346 22.5711C18.458 22.5711 22.5846 18.4469 22.5846 13.3379C22.5846 8.22891 18.458 4.10478 13.346 4.10478C8.23399 4.10478 4.10742 8.22891 4.10742 13.3379Z" fill="#0D0F2E"/>
</svg>
