<svg width="52" height="43" viewBox="0 0 52 43" fill="none" xmlns="http://www.w3.org/2000/svg">
<path fill-rule="evenodd" clip-rule="evenodd" d="M46.6867 21.5C46.6867 33.3741 37.1728 43 25.4368 43C18.7016 43 12.6982 39.8297 8.80498 34.8837H10.2335V30.4242C10.2335 29.71 10.4195 29.1646 10.7918 28.7881C11.174 28.402 11.687 28.209 12.3308 28.209C12.9747 28.209 13.4827 28.402 13.855 28.7881C14.2271 29.1646 14.4133 29.71 14.4133 30.4242V34.8837H16.1184V30.1781C16.1184 29.4541 15.9725 28.8364 15.6808 28.3249C15.3991 27.8133 15.0067 27.4271 14.5038 27.1665C14.0108 26.9059 13.4475 26.7756 12.8138 26.7756C12.2806 26.7756 11.7877 26.8673 11.335 27.0507C10.8923 27.2341 10.5251 27.4947 10.2335 27.8325V24.1695H8.51324V34.5045C7.33484 32.937 6.36429 31.201 5.64318 29.3383H6.54888C6.50859 28.5468 6.19677 27.9242 5.61333 27.4706C5.40162 27.2995 5.16454 27.16 4.90209 27.0521C4.43548 25.281 4.18676 23.4199 4.18676 21.5C4.18676 9.62588 13.7007 0 25.4368 0C33.3273 0 40.2134 4.35124 43.8789 10.8115C43.5991 11.3861 43.4593 12.0357 43.4593 12.7602C43.4593 13.5613 43.6303 14.2804 43.9723 14.9175C44.3244 15.5449 44.7972 16.0372 45.3908 16.3943C45.6379 16.539 45.8956 16.6536 46.1637 16.7381C46.506 18.2698 46.6867 19.8636 46.6867 21.5ZM46.1637 16.7381C46.5394 16.8564 46.9356 16.9156 47.3524 16.9156C47.9962 16.9156 48.5696 16.7901 49.0726 16.5391C49.5756 16.2882 49.9729 15.9744 50.2647 15.598V16.7852H52V8.80747H50.2647V9.96577C49.9729 9.59902 49.5806 9.29497 49.0877 9.05361C48.6048 8.80269 48.0364 8.67716 47.3826 8.67716C46.6583 8.67716 45.9943 8.85091 45.3908 9.1984C44.7972 9.53626 44.3244 10.0141 43.9723 10.6318C43.9396 10.6909 43.9085 10.7508 43.8789 10.8115C44.9139 12.6357 45.6922 14.6281 46.1637 16.7381ZM4.90209 27.0521C4.4537 26.8678 3.93126 26.7756 3.3348 26.7756C2.70104 26.7756 2.13767 26.877 1.64477 27.0796C1.1619 27.2823 0.789639 27.5623 0.528136 27.9194C0.266558 28.2669 0.135807 28.653 0.135807 29.0777C0.135807 29.599 0.276592 30.0189 0.558315 30.3373C0.849996 30.6559 1.19208 30.8924 1.58441 31.0468C1.97674 31.2013 2.48473 31.3606 3.10845 31.5247C3.75225 31.6983 4.22003 31.8576 4.51179 32.0025C4.81358 32.1473 4.96447 32.3692 4.96447 32.6684C4.96447 32.9484 4.82867 33.18 4.55705 33.3635C4.29548 33.5371 3.92329 33.624 3.44043 33.624C2.97763 33.624 2.59035 33.513 2.27853 33.291C1.97674 33.0593 1.81075 32.7746 1.78057 32.4368H0C0.0200692 32.9194 0.181075 33.3586 0.482866 33.7543C0.784658 34.1405 1.19208 34.4494 1.70512 34.681C2.2282 34.903 2.8167 35.014 3.47061 35.014C4.1144 35.014 4.67272 34.9127 5.14555 34.7099C5.62842 34.5072 6.0006 34.2273 6.26218 33.8701C6.52368 33.513 6.65451 33.1076 6.65451 32.6539C6.6444 32.1424 6.49856 31.7322 6.21691 31.4232C5.93519 31.1144 5.59824 30.8828 5.20591 30.7283C4.82361 30.5642 4.33071 30.405 3.72713 30.2505C3.27444 30.125 2.93236 30.0237 2.70104 29.9464C2.46964 29.8595 2.27347 29.7437 2.11254 29.599C1.95154 29.4541 1.87111 29.2756 1.87111 29.0632C1.87111 28.793 1.99182 28.5758 2.23326 28.4117C2.47469 28.2476 2.82175 28.1655 3.27444 28.1655C3.73716 28.1655 4.10437 28.2717 4.37598 28.4841C4.64759 28.6965 4.79849 28.9812 4.82867 29.3383H5.64318C5.3556 28.5955 5.10769 27.8325 4.90209 27.0521ZM8.51324 34.5045V34.8837H8.80498C8.70637 34.7584 8.60912 34.632 8.51324 34.5045ZM13.2064 12.7602C13.2064 11.9591 13.3774 11.2496 13.7195 10.6318C14.0716 10.0141 14.5444 9.53626 15.1379 9.1984C15.7415 8.85091 16.4054 8.67716 17.1297 8.67716C17.7836 8.67716 18.352 8.80269 18.8348 9.05361C19.3278 9.29497 19.7201 9.59902 20.0118 9.96577V8.80747H21.7471V16.7852H20.0118V15.598C19.7201 15.9744 19.3227 16.2882 18.8197 16.5391C18.3168 16.7901 17.7434 16.9156 17.0995 16.9156C16.3853 16.9156 15.7314 16.7418 15.1379 16.3943C14.5444 16.0372 14.0716 15.5449 13.7195 14.9175C13.3774 14.2804 13.2064 13.5613 13.2064 12.7602ZM20.0118 12.7891C20.0118 12.2389 19.8911 11.7611 19.6497 11.3557C19.4183 10.9503 19.1115 10.6415 18.7292 10.4291C18.347 10.2168 17.9345 10.1106 17.4918 10.1106C17.0493 10.1106 16.6368 10.2168 16.2545 10.4291C15.8723 10.6318 15.5604 10.9358 15.3189 11.3412C15.0876 11.737 14.9719 12.21 14.9719 12.7602C14.9719 13.3104 15.0876 13.793 15.3189 14.208C15.5604 14.6231 15.8723 14.9417 16.2545 15.1636C16.6468 15.376 17.0593 15.4822 17.4918 15.4822C17.9345 15.4822 18.347 15.376 18.7292 15.1636C19.1115 14.9513 19.4183 14.6424 19.6497 14.237C19.8911 13.822 20.0118 13.3393 20.0118 12.7891ZM23.4331 12.7602C23.4331 11.9591 23.6042 11.2496 23.9462 10.6318C24.2983 10.0141 24.7711 9.53626 25.3646 9.1984C25.9682 8.85091 26.6372 8.67716 27.3715 8.67716C28.0153 8.67716 28.5837 8.80269 29.0766 9.05361C29.5797 9.3046 29.9669 9.60865 30.2386 9.96577V8.80747H31.9739V20.5787H30.2386V15.627C29.9669 15.9841 29.5746 16.2882 29.0616 16.5391C28.5485 16.7901 27.9651 16.9156 27.3112 16.9156C26.5969 16.9156 25.9431 16.7418 25.3495 16.3943C24.7661 16.0372 24.2983 15.5449 23.9462 14.9175C23.6042 14.2804 23.4331 13.5613 23.4331 12.7602ZM30.2386 12.7891C30.2386 12.2389 30.1178 11.7611 29.8764 11.3557C29.645 10.9503 29.3382 10.6415 28.9559 10.4291C28.5736 10.2168 28.1612 10.1106 27.7186 10.1106C27.2759 10.1106 26.8635 10.2168 26.4812 10.4291C26.0989 10.6318 25.7871 10.9358 25.5457 11.3412C25.3143 11.737 25.1986 12.21 25.1986 12.7602C25.1986 13.3104 25.3143 13.793 25.5457 14.208C25.7871 14.6231 26.0989 14.9417 26.4812 15.1636C26.8736 15.376 27.286 15.4822 27.7186 15.4822C28.1612 15.4822 28.5736 15.376 28.9559 15.1636C29.3382 14.9513 29.645 14.6424 29.8764 14.237C30.1178 13.822 30.2386 13.3393 30.2386 12.7891ZM41.763 8.80747V16.7852H40.0428V15.8441C39.7712 16.1724 39.4141 16.433 38.9714 16.626C38.5389 16.8094 38.0761 16.9011 37.5832 16.9011C36.9293 16.9011 36.3408 16.7708 35.8177 16.5102C35.3046 16.2495 34.8972 15.8635 34.5954 15.3519C34.3037 14.8403 34.1578 14.2225 34.1578 13.4986V8.80747H35.863V13.2524C35.863 13.9667 36.0491 14.5169 36.4213 14.903C36.7935 15.2795 37.3015 15.4677 37.9453 15.4677C38.5891 15.4677 39.0972 15.2795 39.4694 14.903C39.8517 14.5169 40.0428 13.9667 40.0428 13.2524V8.80747H41.763ZM50.2647 12.7891C50.2647 12.2389 50.144 11.7611 49.9025 11.3557C49.6711 10.9503 49.3643 10.6415 48.9821 10.4291C48.5998 10.2168 48.1873 10.1106 47.7447 10.1106C47.3021 10.1106 46.8896 10.2168 46.5074 10.4291C46.1251 10.6318 45.8133 10.9358 45.5718 11.3412C45.3404 11.737 45.2248 12.21 45.2248 12.7602C45.2248 13.3104 45.3404 13.793 45.5718 14.208C45.8133 14.6231 46.1251 14.9417 46.5074 15.1636C46.8997 15.376 47.3121 15.4822 47.7447 15.4822C48.1873 15.4822 48.5998 15.376 48.9821 15.1636C49.3643 14.9513 49.6711 14.6424 49.9025 14.237C50.144 13.822 50.2647 13.3393 50.2647 12.7891ZM21.919 35.014C21.1343 35.014 20.4251 34.8451 19.7913 34.5072C19.1576 34.1597 18.6596 33.6772 18.2975 33.0593C17.9353 32.432 17.7543 31.708 17.7543 30.8875C17.7543 30.0768 17.9404 29.3576 18.3126 28.7302C18.6848 28.1028 19.1928 27.6202 19.8366 27.2823C20.4805 26.9445 21.1997 26.7756 21.9944 26.7756C22.7892 26.7756 23.5084 26.9445 24.1522 27.2823C24.7961 27.6202 25.3041 28.1028 25.6763 28.7302C26.0485 29.3576 26.2346 30.0768 26.2346 30.8875C26.2346 31.6983 26.0435 32.4175 25.6612 33.0449C25.279 33.6723 24.7558 34.1597 24.0919 34.5072C23.4381 34.8451 22.7138 35.014 21.919 35.014ZM21.919 33.5807C22.3616 33.5807 22.7741 33.4793 23.1563 33.2765C23.5487 33.0738 23.8655 32.7698 24.107 32.3644C24.3484 31.959 24.4691 31.4668 24.4691 30.8875C24.4691 30.3084 24.3535 29.821 24.1221 29.4252C23.8907 29.0198 23.5839 28.7157 23.2016 28.513C22.8194 28.3103 22.4069 28.209 21.9643 28.209C21.5217 28.209 21.1092 28.3103 20.7269 28.513C20.3547 28.7157 20.058 29.0198 19.8366 29.4252C19.6153 29.821 19.5047 30.3084 19.5047 30.8875C19.5047 31.7466 19.731 32.4127 20.1837 32.8857C20.6465 33.349 21.2249 33.5807 21.919 33.5807ZM29.6553 28.0787C29.9471 27.7119 30.3445 27.403 30.8474 27.152C31.3504 26.9011 31.9188 26.7756 32.5525 26.7756C33.2768 26.7756 33.9358 26.9493 34.5293 27.2968C35.1329 27.6347 35.6057 28.1125 35.9477 28.7302C36.2898 29.348 36.4607 30.0575 36.4607 30.8586C36.4607 31.6598 36.2898 32.3789 35.9477 33.0159C35.6057 33.6433 35.1329 34.1356 34.5293 34.4927C33.9358 34.8402 33.2768 35.014 32.5525 35.014C31.9188 35.014 31.3555 34.8934 30.8625 34.652C30.3696 34.4011 29.9672 34.0922 29.6553 33.7254V38.6772H27.9351V26.9059H29.6553V28.0787ZM34.7104 30.8586C34.7104 30.3084 34.5896 29.8354 34.3482 29.4397C34.1169 29.0343 33.805 28.7302 33.4126 28.5275C33.0304 28.3152 32.618 28.209 32.1753 28.209C31.7428 28.209 31.3303 28.3152 30.938 28.5275C30.5557 28.7399 30.2438 29.0487 30.0024 29.4541C29.7711 29.8595 29.6553 30.3373 29.6553 30.8875C29.6553 31.4377 29.7711 31.9204 30.0024 32.3354C30.2438 32.7409 30.5557 33.0497 30.938 33.262C31.3303 33.4744 31.7428 33.5807 32.1753 33.5807C32.618 33.5807 33.0304 33.4744 33.4126 33.262C33.805 33.0401 34.1169 32.7216 34.3482 32.3064C34.5896 31.8914 34.7104 31.4088 34.7104 30.8586Z" fill="url(#paint0_linear_1089_1799)"/>
<defs>
<linearGradient id="paint0_linear_1089_1799" x1="1.51514e-06" y1="21.1091" x2="52" y2="21.1091" gradientUnits="userSpaceOnUse">
<stop stop-color="#00D1DE"/>
<stop offset="1" stop-color="#CC00DE"/>
</linearGradient>
</defs>
</svg>
