<svg width="35" height="35" viewBox="0 0 35 35" fill="none" xmlns="http://www.w3.org/2000/svg">
<path fill-rule="evenodd" clip-rule="evenodd" d="M17.5 0C7.84 0 0 7.84 0 17.5C0 27.16 7.84 35 17.5 35C27.16 35 35 27.16 35 17.5C35 7.84 27.16 0 17.5 0ZM17.5 5.25C20.405 5.25 22.75 7.595 22.75 10.5C22.75 13.405 20.405 15.75 17.5 15.75C14.595 15.75 12.25 13.405 12.25 10.5C12.25 7.595 14.595 5.25 17.5 5.25ZM7.00049 24.4649C9.25799 27.8599 13.1255 30.0999 17.5005 30.0999C21.8755 30.0999 25.743 27.8599 28.0005 24.4649C27.948 20.9824 20.983 19.0749 17.5005 19.0749C14.0005 19.0749 7.05299 20.9824 7.00049 24.4649Z" fill="#0D0F2E"/>
</svg>
