<svg width="59" height="35" viewBox="0 0 59 35" fill="none" xmlns="http://www.w3.org/2000/svg">
<path d="M28.3763 4.61802C22.8865 2.51002 18.1776 -0.0370146 12.6376 0.00040755C11.5052 0.00814916 10.337 0.124273 9.12085 0.373824L9.32603 30.3943C18.3956 29.2736 23.9667 31.3716 28.3765 33.7501L28.3763 4.61802Z" fill="#0D0F2E"/>
<path d="M50.6679 30.3936L50.879 0.374313C49.6614 0.124762 48.4933 0.00863543 47.3595 0.000894526C41.818 -0.0364472 37.1104 2.50783 31.623 4.61583V33.7468C36.0334 31.3688 41.6071 29.2735 50.6677 30.3938L50.6679 30.3936Z" fill="#0D0F2E"/>
<path d="M54.0853 6.23275L53.9023 32.286C53.9019 32.3703 53.8946 32.4536 53.8811 32.5369C53.737 33.4268 52.9027 34.0306 52.0176 33.8848C44.7382 32.6904 40.1507 33.4846 36.447 35.0001H55L54.9778 5.84229L54.0853 6.23275Z" fill="#0D0F2E"/>
<path d="M7.97642 33.8841C7.89398 33.8978 7.81018 33.9051 7.72639 33.9051C6.82954 33.9114 6.09802 33.1855 6.09118 32.2839L5.91316 6.23295L5.01812 5.84131L5 34.998H23.5484C19.8459 33.4833 15.2598 32.6891 7.97544 33.8836L7.97642 33.8841Z" fill="#0D0F2E"/>
</svg>
