<svg width="35" height="35" viewBox="0 0 35 35" fill="none" xmlns="http://www.w3.org/2000/svg">
<path fill-rule="evenodd" clip-rule="evenodd" d="M0 1.75C0 2.7125 0.787208 3.5 1.74935 3.5H3.4987L9.79636 16.7825L7.43474 21.0525C6.15771 23.3975 7.83709 26.25 10.4961 26.25H29.739C30.7011 26.25 31.4883 25.4625 31.4883 24.5C31.4883 23.5375 30.7011 22.75 29.739 22.75H10.4961L12.4204 19.25H25.453C26.7651 19.25 27.9196 18.5325 28.5144 17.4475L34.7771 6.09C35.4243 4.935 34.5847 3.5 33.2551 3.5H7.36476L6.1927 0.9975C5.9128 0.385 5.28304 0 4.61829 0H1.74935C0.787208 0 0 0.7875 0 1.75ZM10.4987 28C8.57393 28 7.0166 29.575 7.0166 31.5C7.0166 33.425 8.57393 35 10.4987 35C12.4235 35 13.9983 33.425 13.9983 31.5C13.9983 29.575 12.4235 28 10.4987 28ZM24.5083 31.5C24.5083 29.575 26.0656 28 27.9904 28C29.9152 28 31.49 29.575 31.49 31.5C31.49 33.425 29.9152 35 27.9904 35C26.0656 35 24.5083 33.425 24.5083 31.5Z" fill="#0D0F2E"/>
</svg>
