<svg width="35" height="35" viewBox="0 0 35 35" fill="none" xmlns="http://www.w3.org/2000/svg">
<path fill-rule="evenodd" clip-rule="evenodd" d="M0 3.18109C0 1.4243 1.41188 0 3.18113 0H12.728C14.4851 0 15.9094 1.41186 15.9094 3.18109V12.7279C15.9094 14.4849 14.4975 15.9092 12.728 15.9092H3.18113C1.42431 15.9092 0 14.4973 0 12.7279V3.18109ZM0 22.2721C0 20.5151 1.41188 19.0908 3.18113 19.0908H12.728C14.4851 19.0908 15.9094 20.5027 15.9094 22.2721V31.8189C15.9094 33.5757 14.4975 35 12.728 35H3.18113C1.42431 35 0 33.5881 0 31.8189V22.2721ZM19.0906 22.2721C19.0906 20.5151 20.5025 19.0908 22.272 19.0908H31.8189C33.5757 19.0908 35 20.5027 35 22.2721V31.8189C35 33.5757 33.5881 35 31.8189 35H22.272C20.5149 35 19.0906 33.5881 19.0906 31.8189V22.2721ZM19.0906 3.18109C19.0906 1.4243 20.5025 0 22.272 0H31.8189C33.5757 0 35 1.41186 35 3.18109V12.7279C35 14.4849 33.5881 15.9092 31.8189 15.9092H22.272C20.5149 15.9092 19.0906 14.4973 19.0906 12.7279V3.18109Z" fill="#0D0F2E"/>
</svg>
