<svg width="50" height="50" viewBox="0 0 50 50" fill="none" xmlns="http://www.w3.org/2000/svg">
<path fill-rule="evenodd" clip-rule="evenodd" d="M25 0C11.2 0 0 11.2 0 25C0 38.8 11.2 50 25 50C38.8 50 50 38.8 50 25C50 11.2 38.8 0 25 0ZM25 7.50006C29.15 7.50006 32.5 10.8501 32.5 15.0001C32.5 19.15 29.15 22.5 25 22.5C20.85 22.5 17.5 19.15 17.5 15.0001C17.5 10.8501 20.85 7.50006 25 7.50006ZM10 34.9499C13.225 39.7999 18.75 42.9999 25 42.9999C31.25 42.9999 36.775 39.7999 40 34.9499C39.925 29.9749 29.975 27.2499 25 27.2499C20 27.2499 10.075 29.9749 10 34.9499Z" fill="#0D0F2E"/>
</svg>
