<svg width="120" height="120" viewBox="0 0 120 120" fill="none" xmlns="http://www.w3.org/2000/svg">
<circle cx="60" cy="60" r="58.5" fill="white" fill-opacity="0.4" stroke="#00DEB6" stroke-width="3"/>
<path d="M74.1875 64.5417C74.1875 67.0947 72.4842 69.1667 70.3854 69.1667C68.2867 69.1667 66.5833 67.0947 66.5833 64.5417C66.5833 61.9887 68.2867 59.9167 70.3854 59.9167C72.4842 59.9167 74.1875 61.9887 74.1875 64.5417ZM50.6146 59.9167C48.5158 59.9167 46.8125 61.9887 46.8125 64.5417C46.8125 67.0947 48.5158 69.1667 50.6146 69.1667C52.7133 69.1667 54.4167 67.0947 54.4167 64.5417C54.4167 61.9887 52.7133 59.9167 50.6146 59.9167ZM60.5 76.4341C53.276 71.9509 55.3626 82.8937 45.2917 78.4043C46.8125 84.608 55.9558 85.6594 60.5 81.9224C65.0443 85.6594 74.1875 84.608 75.7083 78.4043C65.6374 82.8967 67.724 71.954 60.5 76.4341ZM97 67.0484C97 72.4905 94.004 79.354 87.4522 82.1752C81.2168 92.2701 72.3199 100 60.5 100C49.0968 100 39.6403 92.0388 33.5448 82.1752C26.996 79.3509 24 72.4874 24 67.0484C24 60.8972 26.4668 55.4119 32.1608 54.8415L32.252 54.7552L32.2612 54.6935C31.5008 48.6964 31.2331 39.5235 34.4481 36.0486C36.1758 34.1832 38.1498 33.4617 40.6744 34.3065C44.6103 28.8644 51.1803 26 60.0559 26C74.1875 26 79.9849 33.4524 84.9276 39.7517C87.6438 43.2143 90.9167 46.683 97 46.4918C94.5393 48.829 91.5889 50.6667 88.386 52.0264C88.5411 52.9545 88.6689 53.8887 88.7571 54.823C94.3842 55.3317 97 60.6967 97 67.0484ZM89.1525 61.2949C88.4377 60.8232 87.5404 60.9372 87.1115 61.1315C85.104 62.0349 82.835 60.5395 82.835 58.3133C82.835 56.8364 82.7285 55.3626 82.5308 53.9042C70.063 56.7655 55.9375 53.1919 50.9948 43.2143C43.7708 44.3705 39.2844 50.4786 38.1316 58.6957H38.1194C37.8548 60.8016 35.7317 61.9609 33.8915 61.1315C33.4626 60.9403 32.5653 60.8232 31.8475 61.2949C28.8058 63.3022 29.1313 74.1956 36.5743 76.7486C37.2556 76.9829 37.8305 77.4516 38.2015 78.0744C43.3967 86.7972 50.4138 93.8333 60.5 93.8333C70.5923 93.8333 77.6063 86.791 82.7985 78.0744C83.1726 77.4516 83.7505 76.9829 84.4288 76.7486C91.8748 74.1925 92.1942 63.2929 89.1525 61.2949Z" fill="black"/>
</svg>
