<svg width="120" height="120" viewBox="0 0 120 120" fill="none" xmlns="http://www.w3.org/2000/svg">
<circle cx="60" cy="60" r="58.5" fill="white" fill-opacity="0.4" stroke="#00DEB6" stroke-width="3"/>
<path d="M73 61.3999C73 63.7183 71.432 65.5999 69.5 65.5999C67.568 65.5999 66 63.7183 66 61.3999C66 59.0815 67.568 57.1999 69.5 57.1999C71.432 57.1999 73 59.0815 73 61.3999ZM51.3 57.1999C49.368 57.1999 47.8 59.0815 47.8 61.3999C47.8 63.7183 49.368 65.5999 51.3 65.5999C53.232 65.5999 54.8 63.7183 54.8 61.3999C54.8 59.0815 53.232 57.1999 51.3 57.1999ZM60.4 80.5911C66.658 80.5911 68.8 73.9999 68.8 73.9999H52C52 73.9999 54.3716 80.5911 60.4 80.5911ZM96.8 90.7804C89.3716 95.5796 81.6296 94.2916 77.6424 86.6139C72.9608 90.8279 67.2656 93.5776 60.4 93.5776C53.316 93.5776 47.7524 91.0296 43.0848 86.7316C39.078 94.2972 31.3864 95.5516 24 90.7804C36.25 85.8804 16.3588 57.7039 35.4912 36.5303C41.8808 29.4603 50.8128 26.3999 60.4 26.3999C69.9872 26.3999 78.9192 29.4603 85.3088 36.5303C104.441 57.7039 84.55 85.8804 96.8 90.7804ZM80.9296 73.6695C81.2712 73.1039 81.8032 72.6783 82.4276 72.4655C89.2792 70.1471 89.5788 60.2547 86.7788 58.4319C86.1208 58.0063 85.292 58.1099 84.8972 58.2835C83.038 59.1095 80.9604 57.7403 80.9604 55.7243C80.9604 54.4055 80.8652 52.9215 80.6916 51.5999H52.4088C50.1324 48.7411 50.25 43.3539 51.3 38.8039C48.7716 41.5535 46.5596 47.9011 46.05 51.5999H40.1112C39.9376 52.9215 39.8424 54.4055 39.8424 55.7243C39.8424 57.7403 37.7648 59.1095 35.9056 58.2835C35.5108 58.1099 34.6848 58.0035 34.024 58.4319C31.224 60.2547 31.5236 70.1471 38.3752 72.4655C39.0024 72.6783 39.5316 73.1039 39.8732 73.6695C44.6584 81.5907 51.1152 87.9804 60.4028 87.9804C69.6876 87.9804 76.1472 81.5879 80.9296 73.6695Z" fill="#0D0F2E"/>
</svg>
